<svg xmlns="http://www.w3.org/2000/svg" width="800" height="600">
  <defs><linearGradient id="bg" x1="0%" y1="0%" x2="100%" y2="100%">
    <stop offset="0%" stop-color="#0d1f33"/><stop offset="50%" stop-color="#1a3a5c"/><stop offset="100%" stop-color="#2a5a8c"/>
  </linearGradient></defs>
  <rect width="800" height="600" fill="url(#bg)"/>
  <rect x="180" y="80" width="440" height="460" rx="16" fill="#fff"/>
  <rect x="350" y="100" width="40" height="40" rx="10" fill="#1a3a5c"/>
  <text x="370" y="125" text-anchor="middle" font-family="Inter" font-size="14" font-weight="800" fill="#c9a84c">LF</text>
  <text x="400" y="120" font-family="Georgia" font-size="22" font-weight="700" fill="#1a3a5c">  LexiFlow Admin</text>
  <text x="400" y="150" text-anchor="middle" font-family="Inter" font-size="13" fill="#6b7280">Firm Onboarding and Management</text>
  <text x="220" y="210" font-family="Georgia" font-size="20" fill="#1a3a5c" font-weight="700">Sign In</text>
  <text x="220" y="235" font-family="Inter" font-size="13" fill="#6b7280">Enter your admin credentials.</text>
  <rect x="220" y="270" width="360" height="42" rx="6" fill="none" stroke="#e2e8f0" stroke-width="1.5"/>
  <text x="235" y="295" font-family="Inter" font-size="13" fill="#6b7280">admin@yourfirm.com</text>
  <rect x="220" y="330" width="360" height="42" rx="6" fill="none" stroke="#e2e8f0" stroke-width="1.5"/>
  <circle cx="235" cy="351" r="3" fill="#6b7280"/><circle cx="247" cy="351" r="3" fill="#6b7280"/>
  <circle cx="259" cy="351" r="3" fill="#6b7280"/><circle cx="271" cy="351" r="3" fill="#6b7280"/>
  <rect x="220" y="400" width="360" height="46" rx="6" fill="#c9a84c"/>
  <text x="400" y="428" text-anchor="middle" font-family="Inter" font-size="15" font-weight="700" fill="#0d1f33">Sign In</text>
  <text x="400" y="480" text-anchor="middle" font-family="Inter" font-size="13" fill="#6b7280">Dont have an account?</text>
  <text x="400" y="505" text-anchor="middle" font-family="Inter" font-size="13" fill="#a88a30" text-decoration="underline">Register your firm</text>
</svg>