<?xml version="1.0" encoding="UTF-8"?> <svg xmlns="http://www.w3.org/2000/svg" id="Layer_1" version="1.1" viewBox="0 0 502.337 82.374"><defs><style> .st0 { fill: #005941; } .st1 { fill: #fff; } .st2 { display: none; } </style></defs><g class="st2"><polygon class="st0" points="40.381 .407 32.526 8.266 48.266 8.266 40.381 .407"></polygon><polygon class="st0" points="31.248 9.51 21.829 18.966 58.89 18.966 49.434 9.504 31.248 9.51"></polygon><polygon class="st0" points="20.558 20.244 11.101 29.694 69.58 29.694 60.141 20.244 20.558 20.244"></polygon><polygon class="st0" points="77.763 37.894 30.142 37.894 30.142 40.451 .353 40.451 9.849 30.976 70.87 31.002 77.763 37.894"></polygon><polygon class="st0" points="69.827 52.404 60.274 61.958 20.635 61.958 11.08 52.427 69.827 52.404"></polygon><polygon class="st0" points="59.073 63.16 49.518 72.71 31.404 72.71 21.87 63.185 59.073 63.16"></polygon><polygon class="st0" points="48.445 73.833 40.526 81.784 32.526 73.835 48.445 73.833"></polygon><polygon class="st0" points="30.142 41.693 .373 41.693 9.886 51.202 71.084 51.202 78.076 44.207 30.13 44.274 30.142 41.693"></polygon></g><g class="st2"><g><path class="st0" d="M122.012,49.285c-2.777-2.491-3.464-5.756-3.464-8.475,0-1.92.659-5.272,3.208-7.82,1.718-1.718,4.323-3.062,8.734-3.062,1.145,0,2.75.085,4.151.341,1.088.203,2.005.373,2.92.431.315.03.372.144.372.315,0,.228-.085.573-.142,1.603-.057.948-.057,2.519-.087,2.948-.028.432-.086.606-.257.606-.201,0-.228-.202-.228-.606,0-1.115-.46-2.289-1.203-2.918-1.002-.859-3.208-1.633-5.727-1.633-3.807,0-5.583,1.117-6.585,2.092-2.091,2.001-2.577,4.552-2.577,7.471,0,5.47,4.208,10.479,10.337,10.479,2.147,0,3.838-.254,4.982-1.429.603-.63.975-1.89,1.06-2.407.057-.314.114-.428.287-.428.142,0,.2.199.2.428,0,.202-.344,2.694-.629,3.666-.172.543-.23.602-.745.831-1.145.459-3.321.659-5.155.659-4.295,0-7.187-1.06-9.45-3.092,0,0-.002,0-.002,0Z"></path><path class="st0" d="M147.268,43.728c0,4.211.115,6.044.631,6.558.457.458,1.202.657,3.435.657,1.519,0,2.779-.029,3.466-.856.372-.459.659-1.174.745-1.719.028-.228.086-.372.258-.372.144,0,.172.115.172.431,0,.314-.2,2.031-.43,2.863-.201.659-.287.773-1.803.773-4.125,0-6.015-.171-7.674-.171-.116,0-.603.03-1.174.03-.573.027-1.203.055-1.632.055-.314,0-.459-.055-.459-.228,0-.085.058-.173.229-.173.258,0,.602-.054.86-.115.572-.113.715-.744.83-1.574.144-1.204.144-3.464.144-6.212v-5.042c0-4.466,0-5.27-.057-6.185-.057-.976-.286-1.432-1.231-1.63-.23-.059-.716-.086-.975-.086-.114,0-.229-.058-.229-.173,0-.173.143-.227.458-.227,1.288,0,3.092.084,3.237.084.141,0,2.233-.084,3.091-.084.315,0,.459.054.459.227,0,.115-.114.173-.228.173-.2,0-.602.027-.945.086-.831.142-1.06.625-1.119,1.63-.056.915-.056,1.718-.056,6.185v5.096h-.003,0Z"></path><path class="st0" d="M164.22,43.673c0,2.748,0,5.008.144,6.212.085.83.256,1.461,1.115,1.574.401.06,1.031.115,1.289.115.172,0,.228.087.228.173,0,.143-.143.228-.459.228-1.574,0-3.378-.085-3.521-.085s-1.947.085-2.806.085c-.314,0-.459-.055-.459-.228,0-.085.058-.173.23-.173.257,0,.6-.054.859-.115.573-.113.715-.744.83-1.574.143-1.204.143-3.464.143-6.212v-5.042c0-4.466,0-5.27-.058-6.185-.057-.976-.343-1.457-.974-1.603-.314-.086-.686-.114-.887-.114-.115,0-.229-.058-.229-.173,0-.173.143-.227.457-.227.945,0,2.749.084,2.893.084s1.947-.084,2.806-.084c.315,0,.46.054.46.227,0,.115-.115.173-.23.173-.199,0-.372.027-.715.086-.774.142-1.002.625-1.059,1.63-.057.915-.057,1.718-.057,6.185v5.042h0Z"></path><path class="st0" d="M174.413,38.631c0-4.466,0-5.27-.057-6.185-.057-.976-.285-1.432-1.231-1.63-.23-.059-.716-.086-.974-.086-.115,0-.229-.058-.229-.173,0-.173.143-.227.458-.227,1.288,0,3.092.084,3.235.084.574,0,6.386,0,7.044-.029.543-.029,1.003-.029,1.261-.115.171-.054.285-.171.401-.171.114,0,.171.117.171.257,0,.202-.141.546-.228,1.346-.028.287-.086,1.546-.142,1.891-.03.143-.086.315-.23.315s-.201-.142-.201-.341c0-.23-.085-.715-.258-1.091-.172-.374-.83-.887-1.946-.915l-4.41-.089c-.172,0-.258.089-.258.318v7.903c0,.171.03.255.2.255l3.667-.025c.485,0,.885,0,1.287-.029.687-.056,1.06-.144,1.317-.517.115-.143.2-.286.315-.286s.142.086.142.23c0,.17-.142.656-.228,1.604-.057.572-.114,1.718-.114,1.917,0,.258,0,.543-.202.543-.141,0-.2-.112-.2-.257-.028-.287-.056-.688-.172-1.028-.143-.402-.6-.919-1.489-1.031-.717-.088-3.837-.088-4.324-.088-.143,0-.2.058-.2.258v2.437c0,2.748,0,5.008.143,6.212.087.83.258,1.461,1.117,1.574.402.06,1.032.115,1.288.115.172,0,.23.087.23.173,0,.143-.144.228-.459.228-1.573,0-3.379-.085-3.522-.085s-1.947.085-2.805.085c-.316,0-.459-.055-.459-.228,0-.085.057-.173.228-.173.259,0,.602-.054.861-.115.572-.113.715-.744.829-1.574.143-1.204.143-3.464.143-6.212v-5.045h0Z"></path><path class="st0" d="M191.364,38.631c0-4.466,0-5.27-.056-6.185-.058-.976-.286-1.432-1.231-1.63-.231-.059-.716-.086-.974-.086-.114,0-.229-.058-.229-.173,0-.173.143-.227.458-.227,1.288,0,3.092.084,3.236.084.574,0,6.385,0,7.044-.029.543-.029,1.002-.029,1.26-.115.172-.054.285-.171.402-.171.114,0,.169.117.169.257,0,.202-.141.546-.228,1.346-.027.287-.085,1.546-.142,1.891-.029.143-.086.315-.23.315s-.2-.142-.2-.341c0-.23-.086-.715-.257-1.091-.173-.374-.831-.887-1.948-.915l-4.41-.089c-.172,0-.257.089-.257.318v7.903c0,.171.027.255.199.255l3.665-.025c.487,0,.887,0,1.289-.029.687-.056,1.059-.144,1.317-.517.115-.143.2-.286.315-.286s.142.086.142.23c0,.17-.142.656-.228,1.604-.057.572-.115,1.718-.115,1.917,0,.258,0,.543-.201.543-.141,0-.199-.112-.199-.257-.029-.287-.057-.688-.172-1.028-.142-.402-.601-.919-1.489-1.031-.715-.088-3.837-.088-4.324-.088-.142,0-.199.058-.199.258v2.437c0,2.748,0,5.008.142,6.212.085.83.257,1.461,1.116,1.574.402.06,1.032.115,1.29.115.171,0,.228.087.228.173,0,.143-.144.228-.459.228-1.574,0-3.379-.085-3.521-.085-.143,0-1.947.085-2.806.085-.315,0-.458-.055-.458-.228,0-.085.058-.173.228-.173.257,0,.602-.054.86-.115.572-.113.715-.744.831-1.574.141-1.204.141-3.464.141-6.212v-5.045h.001Z"></path><path class="st0" d="M216.335,29.928c6.442,0,11.252,4.064,11.252,10.737,0,6.413-4.523,11.712-11.424,11.712-7.847,0-11.11-6.098-11.11-11.254,0-4.64,3.379-11.195,11.282-11.195ZM216.936,51.288c2.577,0,7.904-1.489,7.904-9.821,0-6.874-4.181-10.566-8.706-10.566-4.782,0-8.361,3.149-8.361,9.418,0,6.674,4.01,10.969,9.163,10.969Z"></path><path class="st0" d="M233.665,38.631c0-4.466,0-5.27-.058-6.185-.058-.976-.287-1.432-1.232-1.63-.229-.059-.715-.086-.973-.086-.114,0-.229-.058-.229-.173,0-.173.144-.227.459-.227,1.289,0,3.093.084,3.236.084.315,0,2.492-.084,3.378-.084,1.804,0,3.723.171,5.24,1.258.717.513,1.977,1.917,1.977,3.896,0,2.12-.887,4.238-3.465,6.615,2.348,3.005,4.295,5.552,5.957,7.327,1.546,1.631,2.776,1.949,3.493,2.063.543.086.945.086,1.117.086.143,0,.256.087.256.173,0,.173-.171.228-.685.228h-2.033c-1.603,0-2.32-.145-3.065-.545-1.231-.656-2.233-2.061-3.865-4.209-1.203-1.573-2.549-3.493-3.122-4.238-.115-.114-.2-.172-.372-.172l-3.522-.056c-.143,0-.2.086-.2.228v.69c0,2.748,0,5.008.143,6.212.085.83.257,1.461,1.117,1.574.399.06,1.029.115,1.288.115.172,0,.228.087.228.173,0,.143-.142.228-.458.228-1.575,0-3.379-.085-3.522-.085-.028,0-1.832.085-2.69.085-.315,0-.46-.055-.46-.228,0-.085.058-.173.229-.173.258,0,.601-.054.858-.115.574-.113.717-.744.831-1.574.144-1.204.144-3.464.144-6.212v-5.042h0ZM235.956,41.123c0,.144.057.257.2.344.43.257,1.748.459,3.007.459.687,0,1.49-.085,2.148-.546,1.003-.688,1.747-2.233,1.747-4.409,0-3.578-1.891-5.727-4.953-5.727-.86,0-1.632.085-1.919.173-.143.054-.229.171-.229.344v9.362h0Z"></path><path class="st0" d="M255.254,38.631c0-4.466,0-5.27-.057-6.185-.056-.976-.286-1.432-1.231-1.63-.229-.059-.715-.086-.974-.086-.115,0-.229-.058-.229-.173,0-.173.143-.227.459-.227,1.289,0,3.093.084,3.236.084.344,0,2.148-.084,3.865-.084,2.835,0,8.075-.26,11.483,3.262,1.431,1.49,2.778,3.868,2.778,7.273,0,3.608-1.489,6.386-3.094,8.075-1.231,1.291-3.806,3.293-8.676,3.293-2.462,0-6.07-.342-6.356-.342-.143,0-1.947.085-2.807.085-.314,0-.457-.055-.457-.228,0-.085.057-.173.229-.173.257,0,.6-.054.858-.115.574-.113.715-.744.83-1.574.143-1.204.143-3.464.143-6.212v-5.042h0ZM257.66,41.723c0,3.037.029,5.671.057,6.215.029.715.086,1.86.315,2.175.372.545,1.488,1.145,4.868,1.145,2.664,0,5.125-.973,6.816-2.662,1.489-1.46,2.291-4.209,2.291-6.844,0-3.637-1.576-5.984-2.75-7.215-2.692-2.836-5.956-3.237-9.363-3.237-.574,0-1.632.086-1.861.199-.258.115-.343.26-.343.575-.029.973-.029,3.894-.029,6.099v3.549h-.001Z"></path><path class="st0" d="M293.224,43.728c0,4.211.116,6.044.631,6.558.457.458,1.2.657,3.435.657,1.518,0,2.778-.029,3.463-.856.375-.459.66-1.174.745-1.719.031-.228.088-.372.259-.372.145,0,.172.115.172.431,0,.314-.199,2.031-.431,2.863-.198.659-.285.773-1.801.773-4.125,0-6.015-.171-7.676-.171-.114,0-.602.03-1.173.03-.573.027-1.202.055-1.633.055-.315,0-.458-.055-.458-.228,0-.085.056-.173.23-.173.256,0,.601-.054.857-.115.574-.113.717-.744.831-1.574.143-1.204.143-3.464.143-6.212v-5.042c0-4.466,0-5.27-.057-6.185-.057-.976-.285-1.432-1.231-1.63-.23-.059-.717-.086-.974-.086-.116,0-.229-.058-.229-.173,0-.173.145-.227.459-.227,1.288,0,3.091.084,3.235.084s2.234-.084,3.093-.084c.315,0,.458.054.458.227,0,.115-.113.173-.227.173-.201,0-.602.027-.946.086-.831.142-1.059.625-1.117,1.63-.057.915-.057,1.718-.057,6.185v5.096h-.001Z"></path><path class="st0" d="M313.423,31.044c.343-.946.458-1.116.631-1.116.172,0,.286.141.629,1.03.431,1.088,4.925,12.913,6.673,17.265,1.031,2.551,1.86,3.006,2.461,3.179.431.142.859.171,1.147.171.172,0,.285.029.285.173,0,.173-.257.228-.573.228-.429,0-2.52,0-4.495-.055-.544-.03-.86-.03-.86-.202,0-.115.087-.173.201-.198.172-.06.344-.319.172-.776l-2.664-7.042c-.056-.118-.112-.173-.258-.173h-6.155c-.143,0-.23.085-.287.228l-1.718,5.068c-.258.717-.402,1.405-.402,1.919,0,.573.601.83,1.089.83h.286c.202,0,.286.058.286.173,0,.173-.171.228-.429.228-.688,0-1.918-.085-2.233-.085-.317,0-1.89.085-3.238.085-.37,0-.542-.055-.542-.228,0-.115.114-.173.257-.173.204,0,.602-.029.832-.054,1.315-.173,1.889-1.263,2.405-2.694l6.5-17.781h0ZM316.402,42.497c.142,0,.142-.085.113-.2l-2.718-7.73c-.145-.432-.289-.432-.433,0l-2.52,7.73c-.054.142,0,.2.087.2h5.471,0Z"></path><path class="st0" d="M344.562,48.025h.112c.775-2.635,3.41-10.938,4.411-14.605.286-1.06.316-1.462.316-1.833,0-.514-.316-.857-1.633-.857-.141,0-.258-.087-.258-.202,0-.144.146-.198.487-.198,1.462,0,2.664.084,2.922.084.198,0,1.432-.084,2.32-.084.257,0,.399.054.399.171,0,.142-.085.229-.257.229-.114,0-.66.027-.976.141-.857.317-1.314,1.518-1.86,3.092-1.258,3.64-4.15,12.742-5.265,15.953-.747,2.117-.889,2.461-1.205,2.461-.287,0-.458-.373-.858-1.49l-5.611-15.919h-.059c-1.029,2.749-4.953,13.23-5.984,15.89-.459,1.202-.602,1.518-.945,1.518-.288,0-.432-.316-1.001-2.263l-5.098-16.98c-.457-1.519-.831-1.946-1.577-2.233-.37-.144-1.087-.171-1.288-.171-.143,0-.257-.03-.257-.202,0-.144.172-.198.458-.198,1.49,0,3.065.084,3.38.084.258,0,1.517-.084,2.95-.084.398,0,.515.084.515.198,0,.172-.145.202-.288.202-.228,0-.774,0-1.118.171-.17.088-.37.316-.37.686s.258,1.376.542,2.634c.431,1.833,3.41,12.34,3.838,13.859h.059l6.069-16.32c.429-1.174.543-1.318.715-1.318.2,0,.372.374.715,1.346l5.699,16.236v.002h0Z"></path><path class="st0" d="M375.628,29.928c6.444,0,11.254,4.064,11.254,10.737,0,6.413-4.523,11.712-11.423,11.712-7.846,0-11.111-6.098-11.111-11.254,0-4.64,3.378-11.195,11.28-11.195ZM376.23,51.288c2.579,0,7.905-1.489,7.905-9.821,0-6.874-4.182-10.566-8.706-10.566-4.781,0-8.361,3.149-8.361,9.418,0,6.674,4.009,10.969,9.162,10.969Z"></path><path class="st0" d="M392.959,38.631c0-4.466,0-5.27-.055-6.185-.058-.976-.288-1.432-1.233-1.63-.229-.059-.717-.086-.974-.086-.114,0-.227-.058-.227-.173,0-.173.14-.227.456-.227,1.287,0,3.091.084,3.235.084.573,0,6.385,0,7.046-.029.543-.029,1.001-.029,1.258-.115.171-.054.285-.171.401-.171.115,0,.172.117.172.257,0,.202-.145.546-.226,1.346-.03.287-.089,1.546-.145,1.891-.03.143-.087.315-.229.315-.144,0-.202-.142-.202-.341,0-.23-.086-.715-.258-1.091-.168-.374-.831-.887-1.947-.915l-4.409-.089c-.17,0-.257.089-.257.318v7.903c0,.171.027.255.199.255l3.666-.025c.488,0,.886,0,1.287-.029.69-.056,1.061-.144,1.319-.517.113-.143.2-.286.313-.286.116,0,.144.086.144.23,0,.17-.144.656-.227,1.604-.058.572-.118,1.718-.118,1.917,0,.258,0,.543-.198.543-.146,0-.202-.112-.202-.257-.028-.287-.055-.688-.17-1.028-.144-.402-.603-.919-1.488-1.031-.718-.088-3.838-.088-4.326-.088-.143,0-.199.058-.199.258v2.437c0,2.748,0,5.008.141,6.212.089.83.259,1.461,1.119,1.574.401.06,1.031.115,1.288.115.172,0,.23.087.23.173,0,.143-.145.228-.461.228-1.576,0-3.378-.085-3.521-.085-.144,0-1.948.085-2.806.085-.312,0-.456-.055-.456-.228,0-.085.054-.173.226-.173.259,0,.6-.054.859-.115.573-.113.716-.744.83-1.574.144-1.204.144-3.464.144-6.212v-5.045s.001,0,.001,0Z"></path><path class="st0" d="M409.91,38.631c0-4.466,0-5.27-.057-6.185-.056-.976-.285-1.432-1.232-1.63-.228-.059-.715-.086-.973-.086-.113,0-.23-.058-.23-.173,0-.173.144-.227.46-.227,1.288,0,3.094.084,3.235.084.573,0,6.385,0,7.047-.029.542-.029,1.002-.029,1.258-.115.172-.054.287-.171.4-.171s.172.117.172.257c0,.202-.144.546-.227,1.346-.031.287-.089,1.546-.144,1.891-.03.143-.089.315-.231.315-.143,0-.2-.142-.2-.341,0-.23-.085-.715-.257-1.091-.171-.374-.834-.887-1.947-.915l-4.411-.089c-.171,0-.257.089-.257.318v7.903c0,.171.028.255.199.255l3.665-.025c.488,0,.889,0,1.288-.029.69-.056,1.061-.144,1.318-.517.114-.143.202-.286.316-.286s.142.086.142.23c0,.17-.142.656-.228,1.604-.057.572-.116,1.718-.116,1.917,0,.258,0,.543-.199.543-.144,0-.201-.112-.201-.257-.029-.287-.056-.688-.172-1.028-.141-.402-.602-.919-1.487-1.031-.716-.088-3.838-.088-4.325-.088-.141,0-.199.058-.199.258v2.437c0,2.748,0,5.008.142,6.212.088.83.259,1.461,1.118,1.574.402.06,1.029.115,1.288.115.172,0,.227.087.227.173,0,.143-.142.228-.458.228-1.575,0-3.377-.085-3.521-.085-.141,0-1.947.085-2.804.085-.317,0-.457-.055-.457-.228,0-.085.054-.173.228-.173.255,0,.599-.054.856-.115.574-.113.716-.744.83-1.574.144-1.204.144-3.464.144-6.212v-5.045h0Z"></path><path class="st0" d="M429.268,43.673c0,2.748,0,5.008.142,6.212.089.83.26,1.461,1.118,1.574.402.06,1.03.115,1.288.115.171,0,.23.087.23.173,0,.143-.142.228-.46.228-1.577,0-3.378-.085-3.523-.085-.141,0-1.946.085-2.804.085-.316,0-.458-.055-.458-.228,0-.085.055-.173.229-.173.259,0,.6-.054.856-.115.573-.113.717-.744.83-1.574.144-1.204.144-3.464.144-6.212v-5.042c0-4.466,0-5.27-.056-6.185-.055-.976-.344-1.457-.972-1.603-.316-.086-.687-.114-.889-.114-.115,0-.229-.058-.229-.173,0-.173.143-.227.459-.227.945,0,2.75.084,2.891.084.145,0,1.946-.084,2.808-.084.316,0,.458.054.458.227,0,.115-.116.173-.229.173-.202,0-.372.027-.715.086-.773.142-1.003.625-1.058,1.63-.059.915-.059,1.718-.059,6.185v5.042h-.001Z"></path><path class="st0" d="M439.237,49.285c-2.78-2.491-3.466-5.756-3.466-8.475,0-1.92.658-5.272,3.209-7.82,1.717-1.718,4.322-3.062,8.732-3.062,1.146,0,2.748.085,4.152.341,1.088.203,2.004.373,2.921.431.313.03.371.144.371.315,0,.228-.087.573-.142,1.603-.057.948-.057,2.519-.086,2.948-.03.432-.088.606-.26.606-.199,0-.227-.202-.227-.606,0-1.115-.456-2.289-1.204-2.918-.998-.859-3.207-1.633-5.725-1.633-3.808,0-5.585,1.117-6.585,2.092-2.09,2.001-2.578,4.552-2.578,7.471,0,5.47,4.209,10.479,10.337,10.479,2.147,0,3.838-.254,4.981-1.429.604-.63.975-1.89,1.06-2.407.058-.314.114-.428.288-.428.142,0,.199.199.199.428,0,.202-.343,2.694-.631,3.666-.168.543-.227.602-.743.831-1.145.459-3.322.659-5.155.659-4.295,0-7.187-1.06-9.448-3.092h0Z"></path><path class="st0" d="M462.087,38.631c0-4.466,0-5.27-.059-6.185-.056-.976-.285-1.432-1.229-1.63-.23-.059-.718-.086-.976-.086-.115,0-.23-.058-.23-.173,0-.173.146-.227.462-.227,1.286,0,3.09.084,3.233.084.203,0,5.901,0,6.559-.029.543-.029,1.001-.084,1.23-.144.145-.025.257-.142.402-.142.085,0,.114.117.114.257,0,.202-.142.546-.227,1.346-.032.287-.086,1.546-.144,1.891-.027.143-.086.315-.202.315-.171,0-.228-.142-.228-.372,0-.199-.03-.684-.171-1.031-.202-.457-.487-.802-2.035-.973-.484-.059-3.607-.088-3.92-.088-.117,0-.172.088-.172.289v7.903c0,.202.028.288.172.288.371,0,3.893,0,4.552-.058.688-.055,1.089-.115,1.345-.399.199-.232.316-.375.43-.375.086,0,.144.057.144.23,0,.17-.144.656-.23,1.604-.056.572-.114,1.633-.114,1.831,0,.228,0,.545-.202.545-.14,0-.198-.115-.198-.258,0-.288,0-.575-.114-.944-.116-.402-.372-.891-1.49-1.005-.775-.085-3.609-.144-4.095-.144-.144,0-.199.087-.199.202v2.521c0,.972-.03,4.292,0,4.896.086,1.976.515,2.345,3.32,2.345.745,0,2.004,0,2.749-.313.746-.315,1.09-.887,1.288-2.061.058-.317.118-.431.259-.431.175,0,.175.228.175.431,0,.229-.234,2.175-.375,2.776-.2.745-.429.745-1.544.745-4.326,0-6.244-.171-7.075-.171-.055,0-.543.03-1.146.03-.571.027-1.231.055-1.658.055-.316,0-.459-.055-.459-.228,0-.085.056-.173.228-.173.258,0,.601-.054.858-.115.574-.113.716-.744.83-1.574.146-1.204.146-3.464.146-6.212v-5.042h-.004,0Z"></path><path class="st0" d="M477.719,51.603c-.399-.2-.43-.315-.43-1.087,0-1.434.114-2.578.146-3.037.026-.314.085-.458.227-.458.172,0,.202.087.202.314,0,.257,0,.659.085,1.06.431,2.12,2.318,2.92,4.238,2.92,2.75,0,4.094-1.976,4.094-3.807,0-1.975-.829-3.121-3.292-5.155l-1.29-1.059c-3.035-2.491-3.721-4.268-3.721-6.214,0-3.065,2.289-5.154,5.927-5.154,1.116,0,1.948.114,2.66.287.546.115.776.14,1.006.14.227,0,.286.058.286.202,0,.143-.114,1.087-.114,3.035,0,.459-.058.658-.202.658-.172,0-.2-.144-.227-.372-.031-.343-.203-1.116-.374-1.431-.172-.315-.945-1.516-3.58-1.516-1.976,0-3.523,1.231-3.523,3.319,0,1.632.802,2.605,3.494,4.813l.8.629c3.381,2.662,4.181,4.438,4.181,6.729,0,1.171-.456,3.351-2.43,4.752-1.232.859-2.781,1.203-4.326,1.203-1.344,0-2.663-.2-3.838-.774v.003s.001,0,.001,0Z"></path></g><path class="st0" d="M501.984,33.606c0,2.198-1.768,3.942-4.013,3.942s-4.038-1.744-4.038-3.942,1.792-3.918,4.062-3.918c2.222,0,3.99,1.72,3.99,3.918h-.001ZM494.936,33.606c0,1.744,1.314,3.129,3.058,3.129,1.696.024,2.987-1.385,2.987-3.106,0-1.744-1.29-3.153-3.034-3.153-1.696,0-3.01,1.409-3.01,3.13,0,0-.001,0-.001,0ZM497.349,35.637h-.908v-3.918c.358-.048.86-.12,1.505-.12.74,0,1.075.12,1.337.311.239.167.406.454.406.836,0,.477-.358.788-.812.931v.049c.382.119.573.43.693.955.12.597.215.812.287.955h-.955c-.12-.144-.191-.478-.311-.955-.072-.406-.311-.598-.812-.598h-.43v1.553h0ZM497.373,33.439h.43c.502,0,.908-.167.908-.573,0-.359-.263-.598-.836-.598-.239,0-.406.024-.502.048v1.124h0Z"></path><g><path class="st0" d="M151.312,62.878h4.882c.688,0,1.299.097,1.831.29s.976.461,1.33.806c.292.303.517.652.673,1.049.156.396.234.834.234,1.314v.031c0,.449-.065.853-.195,1.213-.131.36-.311.678-.54.955s-.503.511-.822.704c-.318.193-.67.342-1.056.446l2.958,4.147h-2.269l-2.7-3.818h-2.417v3.818h-1.909v-10.955h0ZM156.046,68.309c.69,0,1.24-.165,1.648-.495s.612-.778.612-1.344v-.031c0-.597-.199-1.05-.597-1.359s-.958-.464-1.68-.464h-2.81v3.693h2.827Z"></path><path class="st0" d="M163.518,62.878h1.909v10.955h-1.909v-10.955Z"></path><path class="st0" d="M174.347,74.021c-.855,0-1.633-.144-2.332-.431s-1.296-.683-1.792-1.189c-.496-.506-.879-1.101-1.15-1.784-.271-.684-.407-1.427-.407-2.23v-.031c0-.761.139-1.486.418-2.175.278-.688.669-1.291,1.174-1.807.503-.517,1.103-.926,1.796-1.229s1.453-.454,2.277-.454c.48,0,.916.034,1.307.102.392.068.754.165,1.088.29.333.125.649.279.947.462s.587.394.869.634l-1.221,1.456c-.209-.177-.423-.339-.642-.485s-.449-.269-.688-.368c-.24-.099-.504-.177-.791-.235-.287-.057-.603-.086-.947-.086-.501,0-.968.104-1.401.313-.433.209-.809.489-1.126.839-.318.35-.569.76-.751,1.23-.183.471-.273.967-.273,1.49v.031c0,.565.088,1.087.265,1.568s.429.894.757,1.239.718.617,1.171.815c.453.199.96.298,1.522.298.521,0,1.007-.076,1.459-.228.453-.152.846-.354,1.179-.606v-2.061h-2.801v-1.675h4.664v4.601c-.271.229-.571.449-.9.657-.329.209-.684.391-1.064.548-.381.156-.791.279-1.229.368-.438.088-.897.133-1.377.133h-.001Z"></path><path class="st0" d="M182.204,62.878h1.909v4.554h5.258v-4.554h1.909v10.955h-1.909v-4.617h-5.258v4.617h-1.909v-10.955Z"></path><path class="st0" d="M197.571,64.662h-3.474v-1.784h8.889v1.784h-3.475v9.171h-1.94v-9.171h0Z"></path><path class="st0" d="M205.912,62.878h1.909v10.955h-1.909v-10.955Z"></path><path class="st0" d="M211.546,62.878h1.78l5.856,7.574v-7.574h1.909v10.955h-1.608l-6.028-7.793v7.793h-1.909s0-10.955,0-10.955Z"></path><path class="st0" d="M229.887,74.021c-.855,0-1.633-.144-2.332-.431s-1.296-.683-1.792-1.189c-.496-.506-.879-1.101-1.15-1.784-.271-.684-.407-1.427-.407-2.23v-.031c0-.761.139-1.486.418-2.175.278-.688.669-1.291,1.174-1.807.503-.517,1.103-.926,1.796-1.229s1.453-.454,2.277-.454c.48,0,.916.034,1.307.102.392.068.754.165,1.088.29.333.125.649.279.947.462s.587.394.869.634l-1.221,1.456c-.209-.177-.423-.339-.642-.485s-.449-.269-.688-.368c-.24-.099-.504-.177-.791-.235-.287-.057-.603-.086-.947-.086-.501,0-.968.104-1.401.313-.433.209-.809.489-1.126.839-.318.35-.569.76-.751,1.23-.183.471-.273.967-.273,1.49v.031c0,.565.088,1.087.265,1.568s.429.894.757,1.239.718.617,1.171.815c.453.199.96.298,1.522.298.521,0,1.007-.076,1.459-.228.453-.152.846-.354,1.179-.606v-2.061h-2.801v-1.675h4.664v4.601c-.271.229-.571.449-.9.657-.329.209-.684.391-1.064.548-.381.156-.791.279-1.229.368-.438.088-.897.133-1.377.133h-.001Z"></path><path class="st0" d="M245.912,64.662h-3.474v-1.784h8.888v1.784h-3.473v9.171h-1.941v-9.171Z"></path><path class="st0" d="M254.143,62.878h1.909v4.554h5.259v-4.554h1.909v10.955h-1.909v-4.617h-5.259v4.617h-1.909v-10.955Z"></path><path class="st0" d="M266.82,62.878h8.106v1.737h-6.197v2.817h5.493v1.737h-5.493v2.926h6.275v1.737h-8.185v-10.955h.001Z"></path><path class="st0" d="M283.564,62.878h1.909v4.554h5.259v-4.554h1.909v10.955h-1.909v-4.617h-5.259v4.617h-1.909v-10.955Z"></path><path class="st0" d="M296.241,62.878h8.106v1.737h-6.197v2.817h5.493v1.737h-5.493v2.926h6.275v1.737h-8.185v-10.955h.001Z"></path><path class="st0" d="M311.39,62.8h1.783l4.82,11.033h-2.034l-1.111-2.645h-5.18l-1.127,2.645h-1.972l4.82-11.033h0ZM314.144,69.482l-1.894-4.382-1.878,4.382s3.772,0,3.772,0Z"></path><path class="st0" d="M319.715,62.878h2.128l3.302,8.419,3.287-8.419h2.081l-4.554,11.033h-1.69s-4.554-11.033-4.554-11.033Z"></path><path class="st0" d="M333.283,62.878h1.91v10.955h-1.91v-10.955Z"></path><path class="st0" d="M338.916,62.878h8.106v1.737h-6.197v2.817h5.493v1.737h-5.493v2.926h6.275v1.737h-8.185v-10.955h.001Z"></path><path class="st0" d="M354.034,73.99c-.845,0-1.653-.144-2.425-.431-.772-.287-1.487-.728-2.145-1.322l1.158-1.377c.532.459,1.069.812,1.612,1.057.542.245,1.157.368,1.847.368.594,0,1.066-.125,1.416-.375s.524-.584.524-1.001v-.032c0-.198-.034-.373-.103-.524-.067-.151-.193-.295-.376-.431-.184-.135-.435-.26-.754-.375-.318-.115-.734-.229-1.247-.344-.586-.135-1.106-.29-1.561-.461-.455-.172-.837-.381-1.146-.626s-.544-.545-.706-.9-.243-.783-.243-1.283v-.032c0-.469.093-.899.279-1.291.187-.391.442-.725.768-1.001.326-.276.719-.493,1.177-.649.458-.157.958-.235,1.501-.235.803,0,1.525.118,2.167.352.642.235,1.244.577,1.808,1.025l-1.032,1.455c-.501-.365-.997-.644-1.487-.837s-.985-.29-1.486-.29c-.563,0-1.002.125-1.314.375-.313.25-.47.558-.47.923v.031c0,.209.036.394.109.556s.207.308.4.438c.193.131.46.253.8.368s.771.235,1.295.36c.575.146,1.085.308,1.529.485.444.178.813.394,1.106.649.293.256.515.553.667.892.151.339.228.733.228,1.182v.031c0,.511-.096.97-.287,1.377-.192.407-.458.751-.8,1.033s-.752.496-1.23.642c-.479.146-1.006.219-1.58.219h.001Z"></path><path class="st0" d="M363.674,64.662h-3.475v-1.784h8.889v1.784h-3.474v9.171h-1.94v-9.171Z"></path><path class="st0" d="M376.538,62.878h2.081l2.613,8.122,2.692-8.153h1.627l2.692,8.153,2.613-8.122h2.019l-3.818,11.033h-1.659l-2.691-7.872-2.691,7.872h-1.659l-3.818-11.033s-.001,0-.001,0Z"></path><path class="st0" d="M395.63,62.878h4.883c.688,0,1.299.097,1.831.29s.976.461,1.33.806c.292.303.517.652.673,1.049.157.396.235.834.235,1.314v.031c0,.449-.065.853-.196,1.213-.13.36-.311.678-.54.955s-.503.511-.821.704c-.318.193-.67.342-1.057.446l2.958,4.147h-2.269l-2.7-3.818h-2.418v3.818h-1.909v-10.955h0ZM400.366,68.309c.69,0,1.24-.165,1.648-.495.407-.33.612-.778.612-1.344v-.031c0-.597-.199-1.05-.597-1.359-.398-.309-.958-.464-1.68-.464h-2.811v3.693h2.828,0Z"></path><path class="st0" d="M412.955,74.021c-.846,0-1.617-.149-2.316-.446s-1.299-.702-1.8-1.213c-.501-.511-.892-1.108-1.174-1.792-.281-.683-.423-1.411-.423-2.183v-.031c0-.772.142-1.5.423-2.183.282-.683.679-1.283,1.189-1.799.511-.517,1.116-.926,1.815-1.229s1.471-.454,2.316-.454,1.617.149,2.315.446c.699.297,1.3.702,1.8,1.212.501.512.893,1.109,1.174,1.792.282.684.423,1.411.423,2.183v.031c0,.772-.141,1.5-.423,2.183-.281.684-.678,1.284-1.189,1.8-.511.517-1.116.926-1.815,1.229-.698.303-1.471.454-2.315.454ZM412.986,72.252c.54,0,1.036-.102,1.488-.305.451-.204.838-.48,1.16-.83.322-.349.574-.759.756-1.229.183-.469.273-.97.273-1.502v-.031c0-.532-.091-1.035-.273-1.51s-.437-.887-.764-1.236-.719-.628-1.176-.837c-.458-.208-.956-.313-1.496-.313s-1.036.102-1.488.305-.839.48-1.161.829c-.322.35-.574.759-.756,1.229-.182.47-.272.971-.272,1.502v.031c0,.532.091,1.036.272,1.51.182.475.437.887.764,1.236.327.35.72.629,1.177.837.457.209.955.313,1.496.313h0Z"></path><path class="st0" d="M421.812,62.878h1.78l5.857,7.574v-7.574h1.909v10.955h-1.609l-6.028-7.793v7.793h-1.909s0-10.955,0-10.955Z"></path><path class="st0" d="M440.154,74.021c-.855,0-1.633-.144-2.332-.431s-1.297-.683-1.792-1.189c-.496-.506-.879-1.101-1.15-1.784-.271-.684-.407-1.427-.407-2.23v-.031c0-.761.14-1.486.418-2.175.279-.688.67-1.291,1.174-1.807.504-.517,1.103-.926,1.797-1.229.693-.303,1.453-.454,2.277-.454.48,0,.915.034,1.307.102.391.068.753.165,1.087.29s.65.279.947.462.587.394.868.634l-1.221,1.456c-.208-.177-.422-.339-.642-.485-.219-.146-.448-.269-.688-.368s-.503-.177-.79-.235c-.287-.057-.603-.086-.947-.086-.5,0-.968.104-1.4.313-.433.209-.809.489-1.127.839-.318.35-.568.76-.751,1.23-.183.471-.273.967-.273,1.49v.031c0,.565.088,1.087.265,1.568.178.481.43.894.758,1.239.327.345.718.617,1.171.815.452.199.96.298,1.521.298.521,0,1.007-.076,1.46-.228s.846-.354,1.179-.606v-2.061h-2.802v-1.675h4.664v4.601c-.271.229-.571.449-.899.657-.329.209-.684.391-1.064.548-.381.156-.79.279-1.229.368s-.897.133-1.377.133h-.002,0Z"></path><path class="st0" d="M451.859,73.99c-.845,0-1.653-.144-2.425-.431-.772-.287-1.487-.728-2.145-1.322l1.158-1.377c.532.459,1.069.812,1.612,1.057.542.245,1.157.368,1.847.368.594,0,1.066-.125,1.416-.375s.524-.584.524-1.001v-.032c0-.198-.034-.373-.103-.524-.067-.151-.193-.295-.376-.431-.184-.135-.435-.26-.754-.375-.318-.115-.734-.229-1.247-.344-.586-.135-1.106-.29-1.561-.461-.455-.172-.837-.381-1.146-.626s-.544-.545-.706-.9-.243-.783-.243-1.283v-.032c0-.469.093-.899.279-1.291.187-.391.442-.725.768-1.001.326-.276.719-.493,1.177-.649.458-.157.958-.235,1.501-.235.803,0,1.525.118,2.167.352.642.235,1.244.577,1.808,1.025l-1.032,1.455c-.501-.365-.997-.644-1.487-.837s-.985-.29-1.486-.29c-.563,0-1.002.125-1.314.375-.313.25-.47.558-.47.923v.031c0,.209.036.394.109.556s.207.308.4.438c.193.131.46.253.8.368s.771.235,1.295.36c.575.146,1.085.308,1.529.485.444.178.813.394,1.106.649.293.256.515.553.667.892.151.339.228.733.228,1.182v.031c0,.511-.096.97-.287,1.377-.192.407-.458.751-.8,1.033s-.752.496-1.23.642c-.479.146-1.006.219-1.58.219h.001Z"></path></g><rect class="st0" x="118.499" y="67.663" width="19.346" height="1.088"></rect><rect class="st0" x="468.967" y="67.663" width="19.346" height="1.088"></rect><path class="st0" d="M458.599,64.267h-1.141v-.648h2.988v.648h-1.14v3.048h-.708v-3.048h.001ZM461.239,63.619h.756l1.116,1.752,1.116-1.752h.731v3.696h-.684v-2.628l-1.14,1.776h-.072l-1.14-1.776v2.628h-.685v-3.696s.002,0,.002,0Z"></path></g><g class="st2"><polygon class="st0" points="40.212 .312 32.358 8.17 48.097 8.17 40.212 .312"></polygon><polygon class="st0" points="31.08 9.414 21.661 18.87 58.721 18.87 49.265 9.408 31.08 9.414"></polygon><polygon class="st0" points="20.389 20.148 10.932 29.598 69.412 29.598 59.973 20.148 20.389 20.148"></polygon><polygon class="st0" points="77.595 37.799 29.973 37.799 29.973 40.355 .185 40.355 9.68 30.88 70.702 30.906 77.595 37.799"></polygon><polygon class="st0" points="69.658 52.308 60.106 61.862 20.466 61.862 10.912 52.332 69.658 52.308"></polygon><polygon class="st0" points="58.904 63.064 49.35 72.614 31.236 72.614 21.701 63.09 58.904 63.064"></polygon><polygon class="st0" points="48.276 73.737 40.358 81.688 32.358 73.739 48.276 73.737"></polygon><polygon class="st0" points="29.973 41.598 .205 41.598 9.718 51.107 70.915 51.107 77.908 44.111 29.961 44.178 29.973 41.598"></polygon></g><g class="st2"><g><path class="st0" d="M121.844,49.189c-2.777-2.491-3.464-5.756-3.464-8.475,0-1.92.659-5.272,3.208-7.82,1.718-1.718,4.323-3.062,8.734-3.062,1.145,0,2.75.085,4.151.341,1.088.203,2.005.373,2.92.431.315.03.372.144.372.315,0,.228-.085.573-.142,1.603-.057.948-.057,2.519-.087,2.948-.028.432-.086.606-.257.606-.201,0-.228-.202-.228-.606,0-1.115-.46-2.289-1.203-2.918-1.002-.859-3.208-1.633-5.727-1.633-3.807,0-5.583,1.117-6.585,2.092-2.091,2.001-2.577,4.552-2.577,7.471,0,5.47,4.208,10.479,10.337,10.479,2.147,0,3.838-.254,4.982-1.429.603-.63.975-1.89,1.06-2.407.057-.314.114-.428.287-.428.142,0,.2.199.2.428,0,.202-.344,2.694-.629,3.666-.172.543-.23.602-.745.831-1.145.459-3.321.659-5.155.659-4.295,0-7.187-1.06-9.45-3.092,0,0-.002,0-.002,0Z"></path><path class="st0" d="M147.1,43.632c0,4.211.115,6.044.631,6.558.457.458,1.202.657,3.435.657,1.519,0,2.779-.029,3.466-.856.372-.459.659-1.174.745-1.719.028-.228.086-.372.258-.372.144,0,.172.115.172.431,0,.314-.2,2.031-.43,2.863-.201.659-.287.773-1.803.773-4.125,0-6.015-.171-7.674-.171-.116,0-.603.03-1.174.03-.573.027-1.203.055-1.632.055-.314,0-.459-.055-.459-.228,0-.085.058-.173.229-.173.258,0,.602-.054.86-.115.572-.113.715-.744.83-1.574.144-1.204.144-3.464.144-6.212v-5.042c0-4.466,0-5.27-.057-6.185-.057-.976-.286-1.432-1.231-1.63-.23-.059-.716-.086-.975-.086-.114,0-.229-.058-.229-.173,0-.173.143-.227.458-.227,1.288,0,3.092.084,3.237.084.141,0,2.233-.084,3.091-.084.315,0,.459.054.459.227,0,.115-.114.173-.228.173-.2,0-.602.027-.945.086-.831.142-1.06.625-1.119,1.63-.056.915-.056,1.718-.056,6.185v5.096h-.003,0Z"></path><path class="st0" d="M164.052,43.578c0,2.748,0,5.008.144,6.212.085.83.256,1.461,1.115,1.574.401.06,1.031.115,1.289.115.172,0,.228.087.228.173,0,.143-.143.228-.459.228-1.574,0-3.378-.085-3.521-.085s-1.947.085-2.806.085c-.314,0-.459-.055-.459-.228,0-.085.058-.173.23-.173.257,0,.6-.054.859-.115.573-.113.715-.744.83-1.574.143-1.204.143-3.464.143-6.212v-5.042c0-4.466,0-5.27-.058-6.185-.057-.976-.343-1.457-.974-1.603-.314-.086-.686-.114-.887-.114-.115,0-.229-.058-.229-.173,0-.173.143-.227.457-.227.945,0,2.749.084,2.893.084s1.947-.084,2.806-.084c.315,0,.46.054.46.227,0,.115-.115.173-.23.173-.199,0-.372.027-.715.086-.774.142-1.002.625-1.059,1.63-.057.915-.057,1.718-.057,6.185v5.042h0Z"></path><path class="st0" d="M174.245,38.536c0-4.466,0-5.27-.057-6.185-.057-.976-.285-1.432-1.231-1.63-.23-.059-.716-.086-.974-.086-.115,0-.229-.058-.229-.173,0-.173.143-.227.458-.227,1.288,0,3.092.084,3.235.084.574,0,6.386,0,7.044-.029.543-.029,1.003-.029,1.261-.115.171-.054.285-.171.401-.171.114,0,.171.117.171.257,0,.202-.141.546-.228,1.346-.028.287-.086,1.546-.142,1.891-.03.143-.086.315-.23.315s-.201-.142-.201-.341c0-.23-.085-.715-.258-1.091-.172-.374-.83-.887-1.946-.915l-4.41-.089c-.172,0-.258.089-.258.318v7.903c0,.171.03.255.2.255l3.667-.025c.485,0,.885,0,1.287-.029.687-.056,1.06-.144,1.317-.517.115-.143.2-.286.315-.286s.142.086.142.23c0,.17-.142.656-.228,1.604-.057.572-.114,1.718-.114,1.917,0,.258,0,.543-.202.543-.141,0-.2-.112-.2-.257-.028-.287-.056-.688-.172-1.028-.143-.402-.6-.919-1.489-1.031-.717-.088-3.837-.088-4.324-.088-.143,0-.2.058-.2.258v2.437c0,2.748,0,5.008.143,6.212.087.83.258,1.461,1.117,1.574.402.06,1.032.115,1.288.115.172,0,.23.087.23.173,0,.143-.144.228-.459.228-1.573,0-3.379-.085-3.522-.085s-1.947.085-2.805.085c-.316,0-.459-.055-.459-.228,0-.085.057-.173.228-.173.259,0,.602-.054.861-.115.572-.113.715-.744.829-1.574.143-1.204.143-3.464.143-6.212v-5.045h0Z"></path><path class="st0" d="M191.196,38.536c0-4.466,0-5.27-.056-6.185-.058-.976-.286-1.432-1.231-1.63-.231-.059-.716-.086-.974-.086-.114,0-.229-.058-.229-.173,0-.173.143-.227.458-.227,1.288,0,3.092.084,3.236.084.574,0,6.385,0,7.044-.029.543-.029,1.002-.029,1.26-.115.172-.054.285-.171.402-.171.114,0,.169.117.169.257,0,.202-.141.546-.228,1.346-.027.287-.085,1.546-.142,1.891-.029.143-.086.315-.23.315s-.2-.142-.2-.341c0-.23-.086-.715-.257-1.091-.173-.374-.831-.887-1.948-.915l-4.41-.089c-.172,0-.257.089-.257.318v7.903c0,.171.027.255.199.255l3.665-.025c.487,0,.887,0,1.289-.029.687-.056,1.059-.144,1.317-.517.115-.143.2-.286.315-.286s.142.086.142.23c0,.17-.142.656-.228,1.604-.057.572-.115,1.718-.115,1.917,0,.258,0,.543-.201.543-.141,0-.199-.112-.199-.257-.029-.287-.057-.688-.172-1.028-.142-.402-.601-.919-1.489-1.031-.715-.088-3.837-.088-4.324-.088-.142,0-.199.058-.199.258v2.437c0,2.748,0,5.008.142,6.212.085.83.257,1.461,1.116,1.574.402.06,1.032.115,1.29.115.171,0,.228.087.228.173,0,.143-.144.228-.459.228-1.574,0-3.379-.085-3.521-.085-.143,0-1.947.085-2.806.085-.315,0-.458-.055-.458-.228,0-.085.058-.173.228-.173.257,0,.602-.054.86-.115.572-.113.715-.744.831-1.574.141-1.204.141-3.464.141-6.212v-5.045h.001Z"></path><path class="st0" d="M216.167,29.832c6.442,0,11.252,4.064,11.252,10.737,0,6.413-4.523,11.712-11.424,11.712-7.847,0-11.11-6.098-11.11-11.254,0-4.64,3.379-11.195,11.282-11.195ZM216.767,51.192c2.577,0,7.904-1.489,7.904-9.821,0-6.874-4.181-10.566-8.706-10.566-4.782,0-8.361,3.149-8.361,9.418,0,6.674,4.01,10.969,9.163,10.969Z"></path><path class="st0" d="M233.496,38.536c0-4.466,0-5.27-.058-6.185-.058-.976-.287-1.432-1.232-1.63-.229-.059-.715-.086-.973-.086-.114,0-.229-.058-.229-.173,0-.173.144-.227.459-.227,1.289,0,3.093.084,3.236.084.315,0,2.492-.084,3.378-.084,1.804,0,3.723.171,5.24,1.258.717.513,1.977,1.917,1.977,3.896,0,2.12-.887,4.238-3.465,6.615,2.348,3.005,4.295,5.552,5.957,7.327,1.546,1.631,2.776,1.949,3.493,2.063.543.086.945.086,1.117.086.143,0,.256.087.256.173,0,.173-.171.228-.685.228h-2.033c-1.603,0-2.32-.145-3.065-.545-1.231-.656-2.233-2.061-3.865-4.209-1.203-1.573-2.549-3.493-3.122-4.238-.115-.114-.2-.172-.372-.172l-3.522-.056c-.143,0-.2.086-.2.228v.69c0,2.748,0,5.008.143,6.212.085.83.257,1.461,1.117,1.574.399.06,1.029.115,1.288.115.172,0,.228.087.228.173,0,.143-.142.228-.458.228-1.575,0-3.379-.085-3.522-.085-.028,0-1.832.085-2.69.085-.315,0-.46-.055-.46-.228,0-.085.058-.173.229-.173.258,0,.601-.054.858-.115.574-.113.717-.744.831-1.574.144-1.204.144-3.464.144-6.212v-5.042h0ZM235.787,41.027c0,.144.057.257.2.344.43.257,1.748.459,3.007.459.687,0,1.49-.085,2.148-.546,1.003-.688,1.747-2.233,1.747-4.409,0-3.578-1.891-5.727-4.953-5.727-.86,0-1.632.085-1.919.173-.143.054-.229.171-.229.344v9.362h0Z"></path><path class="st0" d="M255.086,38.536c0-4.466,0-5.27-.057-6.185-.056-.976-.286-1.432-1.231-1.63-.229-.059-.715-.086-.974-.086-.115,0-.229-.058-.229-.173,0-.173.143-.227.459-.227,1.289,0,3.093.084,3.236.084.344,0,2.148-.084,3.865-.084,2.835,0,8.075-.26,11.483,3.262,1.431,1.49,2.778,3.868,2.778,7.273,0,3.608-1.489,6.386-3.094,8.075-1.231,1.291-3.806,3.293-8.676,3.293-2.462,0-6.07-.342-6.356-.342-.143,0-1.947.085-2.807.085-.314,0-.457-.055-.457-.228,0-.085.057-.173.229-.173.257,0,.6-.054.858-.115.574-.113.715-.744.83-1.574.143-1.204.143-3.464.143-6.212v-5.042h0ZM257.492,41.628c0,3.037.029,5.671.057,6.215.029.715.086,1.86.315,2.175.372.545,1.488,1.145,4.868,1.145,2.664,0,5.125-.973,6.816-2.662,1.489-1.46,2.291-4.209,2.291-6.844,0-3.637-1.576-5.984-2.75-7.215-2.692-2.836-5.956-3.237-9.363-3.237-.574,0-1.632.086-1.861.199-.258.115-.343.26-.343.575-.029.973-.029,3.894-.029,6.099v3.549h-.001Z"></path><path class="st0" d="M293.056,43.632c0,4.211.116,6.044.631,6.558.457.458,1.2.657,3.435.657,1.518,0,2.778-.029,3.463-.856.375-.459.66-1.174.745-1.719.031-.228.088-.372.259-.372.145,0,.172.115.172.431,0,.314-.199,2.031-.431,2.863-.198.659-.285.773-1.801.773-4.125,0-6.015-.171-7.676-.171-.114,0-.602.03-1.173.03-.573.027-1.202.055-1.633.055-.315,0-.458-.055-.458-.228,0-.085.056-.173.23-.173.256,0,.601-.054.857-.115.574-.113.717-.744.831-1.574.143-1.204.143-3.464.143-6.212v-5.042c0-4.466,0-5.27-.057-6.185-.057-.976-.285-1.432-1.231-1.63-.23-.059-.717-.086-.974-.086-.116,0-.229-.058-.229-.173,0-.173.145-.227.459-.227,1.288,0,3.091.084,3.235.084s2.234-.084,3.093-.084c.315,0,.458.054.458.227,0,.115-.113.173-.227.173-.201,0-.602.027-.946.086-.831.142-1.059.625-1.117,1.63-.057.915-.057,1.718-.057,6.185v5.096h-.001Z"></path><path class="st0" d="M313.254,30.948c.343-.946.458-1.116.631-1.116.172,0,.286.141.629,1.03.431,1.088,4.925,12.913,6.673,17.265,1.031,2.551,1.86,3.006,2.461,3.179.431.142.859.171,1.147.171.172,0,.285.029.285.173,0,.173-.257.228-.573.228-.429,0-2.52,0-4.495-.055-.544-.03-.86-.03-.86-.202,0-.115.087-.173.201-.198.172-.06.344-.319.172-.776l-2.664-7.042c-.056-.118-.112-.173-.258-.173h-6.155c-.143,0-.23.085-.287.228l-1.718,5.068c-.258.717-.402,1.405-.402,1.919,0,.573.601.83,1.089.83h.286c.202,0,.286.058.286.173,0,.173-.171.228-.429.228-.688,0-1.918-.085-2.233-.085-.317,0-1.89.085-3.238.085-.37,0-.542-.055-.542-.228,0-.115.114-.173.257-.173.204,0,.602-.029.832-.054,1.315-.173,1.889-1.263,2.405-2.694l6.5-17.781h0ZM316.233,42.401c.142,0,.142-.085.113-.2l-2.718-7.73c-.145-.432-.289-.432-.433,0l-2.52,7.73c-.054.142,0,.2.087.2h5.471,0Z"></path><path class="st0" d="M344.393,47.929h.112c.775-2.635,3.41-10.938,4.411-14.605.286-1.06.316-1.462.316-1.833,0-.514-.316-.857-1.633-.857-.141,0-.258-.087-.258-.202,0-.144.146-.198.487-.198,1.462,0,2.664.084,2.922.084.198,0,1.432-.084,2.32-.084.257,0,.399.054.399.171,0,.142-.085.229-.257.229-.114,0-.66.027-.976.141-.857.317-1.314,1.518-1.86,3.092-1.258,3.64-4.15,12.742-5.265,15.953-.747,2.117-.889,2.461-1.205,2.461-.287,0-.458-.373-.858-1.49l-5.611-15.919h-.059c-1.029,2.749-4.953,13.23-5.984,15.89-.459,1.202-.602,1.518-.945,1.518-.288,0-.432-.316-1.001-2.263l-5.098-16.98c-.457-1.519-.831-1.946-1.577-2.233-.37-.144-1.087-.171-1.288-.171-.143,0-.257-.03-.257-.202,0-.144.172-.198.458-.198,1.49,0,3.065.084,3.38.084.258,0,1.517-.084,2.95-.084.398,0,.515.084.515.198,0,.172-.145.202-.288.202-.228,0-.774,0-1.118.171-.17.088-.37.316-.37.686s.258,1.376.542,2.634c.431,1.833,3.41,12.34,3.838,13.859h.059l6.069-16.32c.429-1.174.543-1.318.715-1.318.2,0,.372.374.715,1.346l5.699,16.236v.002h0Z"></path><path class="st0" d="M375.46,29.832c6.444,0,11.254,4.064,11.254,10.737,0,6.413-4.523,11.712-11.423,11.712-7.846,0-11.111-6.098-11.111-11.254,0-4.64,3.378-11.195,11.28-11.195ZM376.061,51.192c2.579,0,7.905-1.489,7.905-9.821,0-6.874-4.182-10.566-8.706-10.566-4.781,0-8.361,3.149-8.361,9.418,0,6.674,4.009,10.969,9.162,10.969Z"></path><path class="st0" d="M392.791,38.536c0-4.466,0-5.27-.055-6.185-.058-.976-.288-1.432-1.233-1.63-.229-.059-.717-.086-.974-.086-.114,0-.227-.058-.227-.173,0-.173.14-.227.456-.227,1.287,0,3.091.084,3.235.084.573,0,6.385,0,7.046-.029.543-.029,1.001-.029,1.258-.115.171-.054.285-.171.401-.171.115,0,.172.117.172.257,0,.202-.145.546-.226,1.346-.03.287-.089,1.546-.145,1.891-.03.143-.087.315-.229.315-.144,0-.202-.142-.202-.341,0-.23-.086-.715-.258-1.091-.168-.374-.831-.887-1.947-.915l-4.409-.089c-.17,0-.257.089-.257.318v7.903c0,.171.027.255.199.255l3.666-.025c.488,0,.886,0,1.287-.029.69-.056,1.061-.144,1.319-.517.113-.143.2-.286.313-.286.116,0,.144.086.144.23,0,.17-.144.656-.227,1.604-.058.572-.118,1.718-.118,1.917,0,.258,0,.543-.198.543-.146,0-.202-.112-.202-.257-.028-.287-.055-.688-.17-1.028-.144-.402-.603-.919-1.488-1.031-.718-.088-3.838-.088-4.326-.088-.143,0-.199.058-.199.258v2.437c0,2.748,0,5.008.141,6.212.089.83.259,1.461,1.119,1.574.401.06,1.031.115,1.288.115.172,0,.23.087.23.173,0,.143-.145.228-.461.228-1.576,0-3.378-.085-3.521-.085-.144,0-1.948.085-2.806.085-.312,0-.456-.055-.456-.228,0-.085.054-.173.226-.173.259,0,.6-.054.859-.115.573-.113.716-.744.83-1.574.144-1.204.144-3.464.144-6.212v-5.045h.001Z"></path><path class="st0" d="M409.742,38.536c0-4.466,0-5.27-.057-6.185-.056-.976-.285-1.432-1.232-1.63-.228-.059-.715-.086-.973-.086-.113,0-.23-.058-.23-.173,0-.173.144-.227.46-.227,1.288,0,3.094.084,3.235.084.573,0,6.385,0,7.047-.029.542-.029,1.002-.029,1.258-.115.172-.054.287-.171.4-.171s.172.117.172.257c0,.202-.144.546-.227,1.346-.031.287-.089,1.546-.144,1.891-.03.143-.089.315-.231.315-.143,0-.2-.142-.2-.341,0-.23-.085-.715-.257-1.091-.171-.374-.834-.887-1.947-.915l-4.411-.089c-.171,0-.257.089-.257.318v7.903c0,.171.028.255.199.255l3.665-.025c.488,0,.889,0,1.288-.029.69-.056,1.061-.144,1.318-.517.114-.143.202-.286.316-.286s.142.086.142.23c0,.17-.142.656-.228,1.604-.057.572-.116,1.718-.116,1.917,0,.258,0,.543-.199.543-.144,0-.201-.112-.201-.257-.029-.287-.056-.688-.172-1.028-.141-.402-.602-.919-1.487-1.031-.716-.088-3.838-.088-4.325-.088-.141,0-.199.058-.199.258v2.437c0,2.748,0,5.008.142,6.212.088.83.259,1.461,1.118,1.574.402.06,1.029.115,1.288.115.172,0,.227.087.227.173,0,.143-.142.228-.458.228-1.575,0-3.377-.085-3.521-.085-.141,0-1.947.085-2.804.085-.317,0-.457-.055-.457-.228,0-.085.054-.173.228-.173.255,0,.599-.054.856-.115.574-.113.716-.744.83-1.574.144-1.204.144-3.464.144-6.212v-5.045h0Z"></path><path class="st0" d="M429.099,43.578c0,2.748,0,5.008.142,6.212.089.83.26,1.461,1.118,1.574.402.06,1.03.115,1.288.115.171,0,.23.087.23.173,0,.143-.142.228-.46.228-1.577,0-3.378-.085-3.523-.085-.141,0-1.946.085-2.804.085-.316,0-.458-.055-.458-.228,0-.085.055-.173.229-.173.259,0,.6-.054.856-.115.573-.113.717-.744.83-1.574.144-1.204.144-3.464.144-6.212v-5.042c0-4.466,0-5.27-.056-6.185-.055-.976-.344-1.457-.972-1.603-.316-.086-.687-.114-.889-.114-.115,0-.229-.058-.229-.173,0-.173.143-.227.459-.227.945,0,2.75.084,2.891.084.145,0,1.946-.084,2.808-.084.316,0,.458.054.458.227,0,.115-.116.173-.229.173-.202,0-.372.027-.715.086-.773.142-1.003.625-1.058,1.63-.059.915-.059,1.718-.059,6.185v5.042h-.001Z"></path><path class="st0" d="M439.068,49.189c-2.78-2.491-3.466-5.756-3.466-8.475,0-1.92.658-5.272,3.209-7.82,1.717-1.718,4.322-3.062,8.732-3.062,1.146,0,2.748.085,4.152.341,1.088.203,2.004.373,2.921.431.313.03.371.144.371.315,0,.228-.087.573-.142,1.603-.057.948-.057,2.519-.086,2.948-.03.432-.088.606-.26.606-.199,0-.227-.202-.227-.606,0-1.115-.456-2.289-1.204-2.918-.998-.859-3.207-1.633-5.725-1.633-3.808,0-5.585,1.117-6.585,2.092-2.09,2.001-2.578,4.552-2.578,7.471,0,5.47,4.209,10.479,10.337,10.479,2.147,0,3.838-.254,4.981-1.429.604-.63.975-1.89,1.06-2.407.058-.314.114-.428.288-.428.142,0,.199.199.199.428,0,.202-.343,2.694-.631,3.666-.168.543-.227.602-.743.831-1.145.459-3.322.659-5.155.659-4.295,0-7.187-1.06-9.448-3.092h0Z"></path><path class="st0" d="M461.918,38.536c0-4.466,0-5.27-.059-6.185-.056-.976-.285-1.432-1.229-1.63-.23-.059-.718-.086-.976-.086-.115,0-.23-.058-.23-.173,0-.173.146-.227.462-.227,1.286,0,3.09.084,3.233.084.203,0,5.901,0,6.559-.029.543-.029,1.001-.084,1.23-.144.145-.025.257-.142.402-.142.085,0,.114.117.114.257,0,.202-.142.546-.227,1.346-.032.287-.086,1.546-.144,1.891-.027.143-.086.315-.202.315-.171,0-.228-.142-.228-.372,0-.199-.03-.684-.171-1.031-.202-.457-.487-.802-2.035-.973-.484-.059-3.607-.088-3.92-.088-.117,0-.172.088-.172.289v7.903c0,.202.028.288.172.288.371,0,3.893,0,4.552-.058.688-.055,1.089-.115,1.345-.399.199-.232.316-.375.43-.375.086,0,.144.057.144.23,0,.17-.144.656-.23,1.604-.056.572-.114,1.633-.114,1.831,0,.228,0,.545-.202.545-.14,0-.198-.115-.198-.258,0-.288,0-.575-.114-.944-.116-.402-.372-.891-1.49-1.005-.775-.085-3.609-.144-4.095-.144-.144,0-.199.087-.199.202v2.521c0,.972-.03,4.292,0,4.896.086,1.976.515,2.345,3.32,2.345.745,0,2.004,0,2.749-.313.746-.315,1.09-.887,1.288-2.061.058-.317.118-.431.259-.431.175,0,.175.228.175.431,0,.229-.234,2.175-.375,2.776-.2.745-.429.745-1.544.745-4.326,0-6.244-.171-7.075-.171-.055,0-.543.03-1.146.03-.571.027-1.231.055-1.658.055-.316,0-.459-.055-.459-.228,0-.085.056-.173.228-.173.258,0,.601-.054.858-.115.574-.113.716-.744.83-1.574.146-1.204.146-3.464.146-6.212v-5.042h-.004,0Z"></path><path class="st0" d="M477.55,51.507c-.399-.2-.43-.315-.43-1.087,0-1.434.114-2.578.146-3.037.026-.314.085-.458.227-.458.172,0,.202.087.202.314,0,.257,0,.659.085,1.06.431,2.12,2.318,2.92,4.238,2.92,2.75,0,4.094-1.976,4.094-3.807,0-1.975-.829-3.121-3.292-5.155l-1.29-1.059c-3.035-2.491-3.721-4.268-3.721-6.214,0-3.065,2.289-5.154,5.927-5.154,1.116,0,1.948.114,2.66.287.546.115.776.14,1.006.14.227,0,.286.058.286.202,0,.143-.114,1.087-.114,3.035,0,.459-.058.658-.202.658-.172,0-.2-.144-.227-.372-.031-.343-.203-1.116-.374-1.431-.172-.315-.945-1.516-3.58-1.516-1.976,0-3.523,1.231-3.523,3.319,0,1.632.802,2.605,3.494,4.813l.8.629c3.381,2.662,4.181,4.438,4.181,6.729,0,1.171-.456,3.351-2.43,4.752-1.232.859-2.781,1.203-4.326,1.203-1.344,0-2.663-.2-3.838-.774v.003h.001Z"></path></g><path class="st0" d="M501.815,33.51c0,2.198-1.768,3.942-4.013,3.942s-4.038-1.744-4.038-3.942,1.792-3.918,4.062-3.918c2.222,0,3.99,1.72,3.99,3.918h-.001ZM494.768,33.51c0,1.744,1.314,3.129,3.058,3.129,1.696.024,2.987-1.385,2.987-3.106,0-1.744-1.29-3.153-3.034-3.153-1.696,0-3.01,1.409-3.01,3.13,0,0-.001,0-.001,0ZM497.181,35.541h-.908v-3.918c.358-.048.86-.12,1.505-.12.74,0,1.075.12,1.337.311.239.167.406.454.406.836,0,.477-.358.788-.812.931v.049c.382.119.573.43.693.955.12.597.215.812.287.955h-.955c-.12-.144-.191-.478-.311-.955-.072-.406-.311-.598-.812-.598h-.43v1.553h0ZM497.204,33.343h.43c.502,0,.908-.167.908-.573,0-.359-.263-.598-.836-.598-.239,0-.406.024-.502.048v1.124h0Z"></path><g><path class="st0" d="M151.143,62.783h4.882c.688,0,1.299.097,1.831.29s.976.461,1.33.806c.292.303.517.652.673,1.049.156.396.234.834.234,1.314v.031c0,.449-.065.853-.195,1.213-.131.36-.311.678-.54.955s-.503.511-.822.704c-.318.193-.67.342-1.056.446l2.958,4.147h-2.269l-2.7-3.818h-2.417v3.818h-1.909v-10.955h0ZM155.878,68.213c.69,0,1.24-.165,1.648-.495s.612-.778.612-1.344v-.031c0-.597-.199-1.05-.597-1.359s-.958-.464-1.68-.464h-2.81v3.693h2.827Z"></path><path class="st0" d="M163.35,62.783h1.909v10.955h-1.909s0-10.955,0-10.955Z"></path><path class="st0" d="M174.179,73.925c-.855,0-1.633-.144-2.332-.431s-1.296-.683-1.792-1.189c-.496-.506-.879-1.101-1.15-1.784-.271-.684-.407-1.427-.407-2.23v-.031c0-.761.139-1.486.418-2.175.278-.688.669-1.291,1.174-1.807.503-.517,1.103-.926,1.796-1.229s1.453-.454,2.277-.454c.48,0,.916.034,1.307.102.392.068.754.165,1.088.29.333.125.649.279.947.462s.587.394.869.634l-1.221,1.456c-.209-.177-.423-.339-.642-.485s-.449-.269-.688-.368c-.24-.099-.504-.177-.791-.235-.287-.057-.603-.086-.947-.086-.501,0-.968.104-1.401.313-.433.209-.809.489-1.126.839-.318.35-.569.76-.751,1.23-.183.471-.273.967-.273,1.49v.031c0,.565.088,1.087.265,1.568s.429.894.757,1.239.718.617,1.171.815c.453.199.96.298,1.522.298.521,0,1.007-.076,1.459-.228.453-.152.846-.354,1.179-.606v-2.061h-2.801v-1.675h4.664v4.601c-.271.229-.571.449-.9.657-.329.209-.684.391-1.064.548-.381.156-.791.279-1.229.368-.438.088-.897.133-1.377.133h-.001Z"></path><path class="st0" d="M182.035,62.783h1.909v4.554h5.258v-4.554h1.909v10.955h-1.909v-4.617h-5.258v4.617h-1.909s0-10.955,0-10.955Z"></path><path class="st0" d="M197.402,64.567h-3.474v-1.784h8.889v1.784h-3.475v9.171h-1.94v-9.171h0Z"></path><path class="st0" d="M205.744,62.783h1.909v10.955h-1.909s0-10.955,0-10.955Z"></path><path class="st0" d="M211.377,62.783h1.78l5.856,7.574v-7.574h1.909v10.955h-1.608l-6.028-7.793v7.793h-1.909s0-10.955,0-10.955Z"></path><path class="st0" d="M229.718,73.925c-.855,0-1.633-.144-2.332-.431s-1.296-.683-1.792-1.189c-.496-.506-.879-1.101-1.15-1.784-.271-.684-.407-1.427-.407-2.23v-.031c0-.761.139-1.486.418-2.175.278-.688.669-1.291,1.174-1.807.503-.517,1.103-.926,1.796-1.229s1.453-.454,2.277-.454c.48,0,.916.034,1.307.102.392.068.754.165,1.088.29.333.125.649.279.947.462s.587.394.869.634l-1.221,1.456c-.209-.177-.423-.339-.642-.485s-.449-.269-.688-.368c-.24-.099-.504-.177-.791-.235-.287-.057-.603-.086-.947-.086-.501,0-.968.104-1.401.313-.433.209-.809.489-1.126.839-.318.35-.569.76-.751,1.23-.183.471-.273.967-.273,1.49v.031c0,.565.088,1.087.265,1.568s.429.894.757,1.239.718.617,1.171.815c.453.199.96.298,1.522.298.521,0,1.007-.076,1.459-.228.453-.152.846-.354,1.179-.606v-2.061h-2.801v-1.675h4.664v4.601c-.271.229-.571.449-.9.657-.329.209-.684.391-1.064.548-.381.156-.791.279-1.229.368-.438.088-.897.133-1.377.133h-.001Z"></path><path class="st0" d="M245.743,64.567h-3.474v-1.784h8.888v1.784h-3.473v9.171h-1.941v-9.171Z"></path><path class="st0" d="M253.975,62.783h1.909v4.554h5.259v-4.554h1.909v10.955h-1.909v-4.617h-5.259v4.617h-1.909s0-10.955,0-10.955Z"></path><path class="st0" d="M266.651,62.783h8.106v1.737h-6.197v2.817h5.493v1.737h-5.493v2.926h6.275v1.737h-8.185v-10.955h.001Z"></path><path class="st0" d="M283.395,62.783h1.909v4.554h5.259v-4.554h1.909v10.955h-1.909v-4.617h-5.259v4.617h-1.909s0-10.955,0-10.955Z"></path><path class="st0" d="M296.072,62.783h8.106v1.737h-6.197v2.817h5.493v1.737h-5.493v2.926h6.275v1.737h-8.185v-10.955h.001Z"></path><path class="st0" d="M311.222,62.704h1.783l4.82,11.033h-2.034l-1.111-2.645h-5.18l-1.127,2.645h-1.972l4.82-11.033h0ZM313.976,69.387l-1.894-4.382-1.878,4.382s3.772,0,3.772,0Z"></path><path class="st0" d="M319.547,62.783h2.128l3.302,8.419,3.287-8.419h2.081l-4.554,11.033h-1.69l-4.554-11.033Z"></path><path class="st0" d="M333.114,62.783h1.91v10.955h-1.91s0-10.955,0-10.955Z"></path><path class="st0" d="M338.748,62.783h8.106v1.737h-6.197v2.817h5.493v1.737h-5.493v2.926h6.275v1.737h-8.185v-10.955h.001Z"></path><path class="st0" d="M353.865,73.894c-.845,0-1.653-.144-2.425-.431-.772-.287-1.487-.728-2.145-1.322l1.158-1.377c.532.459,1.069.812,1.612,1.057.542.245,1.157.368,1.847.368.594,0,1.066-.125,1.416-.375s.524-.584.524-1.001v-.032c0-.198-.034-.373-.103-.524-.067-.151-.193-.295-.376-.431-.184-.135-.435-.26-.754-.375-.318-.115-.734-.229-1.247-.344-.586-.135-1.106-.29-1.561-.461-.455-.172-.837-.381-1.146-.626s-.544-.545-.706-.9-.243-.783-.243-1.283v-.032c0-.469.093-.899.279-1.291.187-.391.442-.725.768-1.001.326-.276.719-.493,1.177-.649.458-.157.958-.235,1.501-.235.803,0,1.525.118,2.167.352.642.235,1.244.577,1.808,1.025l-1.032,1.455c-.501-.365-.997-.644-1.487-.837s-.985-.29-1.486-.29c-.563,0-1.002.125-1.314.375-.313.25-.47.558-.47.923v.031c0,.209.036.394.109.556s.207.308.4.438c.193.131.46.253.8.368s.771.235,1.295.36c.575.146,1.085.308,1.529.485.444.178.813.394,1.106.649.293.256.515.553.667.892.151.339.228.733.228,1.182v.031c0,.511-.096.97-.287,1.377-.192.407-.458.751-.8,1.033s-.752.496-1.23.642c-.479.146-1.006.219-1.58.219h.001Z"></path><path class="st0" d="M363.506,64.567h-3.475v-1.784h8.889v1.784h-3.474v9.171h-1.94v-9.171Z"></path><path class="st0" d="M376.369,62.783h2.081l2.613,8.122,2.692-8.153h1.627l2.692,8.153,2.613-8.122h2.019l-3.818,11.033h-1.659l-2.691-7.872-2.691,7.872h-1.659l-3.818-11.033s-.001,0-.001,0Z"></path><path class="st0" d="M395.462,62.783h4.883c.688,0,1.299.097,1.831.29s.976.461,1.33.806c.292.303.517.652.673,1.049.157.396.235.834.235,1.314v.031c0,.449-.065.853-.196,1.213-.13.36-.311.678-.54.955s-.503.511-.821.704c-.318.193-.67.342-1.057.446l2.958,4.147h-2.269l-2.7-3.818h-2.418v3.818h-1.909v-10.955h0ZM400.197,68.213c.69,0,1.24-.165,1.648-.495.407-.33.612-.778.612-1.344v-.031c0-.597-.199-1.05-.597-1.359-.398-.309-.958-.464-1.68-.464h-2.811v3.693h2.828,0Z"></path><path class="st0" d="M412.786,73.925c-.846,0-1.617-.149-2.316-.446s-1.299-.702-1.8-1.213c-.501-.511-.892-1.108-1.174-1.792-.281-.683-.423-1.411-.423-2.183v-.031c0-.772.142-1.5.423-2.183.282-.683.679-1.283,1.189-1.799.511-.517,1.116-.926,1.815-1.229s1.471-.454,2.316-.454,1.617.149,2.315.446c.699.297,1.3.702,1.8,1.212.501.512.893,1.109,1.174,1.792.282.684.423,1.411.423,2.183v.031c0,.772-.141,1.5-.423,2.183-.281.684-.678,1.284-1.189,1.8-.511.517-1.116.926-1.815,1.229-.698.303-1.471.454-2.315.454ZM412.817,72.157c.54,0,1.036-.102,1.488-.305.451-.204.838-.48,1.16-.83.322-.349.574-.759.756-1.229.183-.469.273-.97.273-1.502v-.031c0-.532-.091-1.035-.273-1.51s-.437-.887-.764-1.236-.719-.628-1.176-.837c-.458-.208-.956-.313-1.496-.313s-1.036.102-1.488.305-.839.48-1.161.829c-.322.35-.574.759-.756,1.229-.182.47-.272.971-.272,1.502v.031c0,.532.091,1.036.272,1.51.182.475.437.887.764,1.236.327.35.72.629,1.177.837.457.209.955.313,1.496.313h0Z"></path><path class="st0" d="M421.643,62.783h1.78l5.857,7.574v-7.574h1.909v10.955h-1.609l-6.028-7.793v7.793h-1.909s0-10.955,0-10.955Z"></path><path class="st0" d="M439.985,73.925c-.855,0-1.633-.144-2.332-.431s-1.297-.683-1.792-1.189c-.496-.506-.879-1.101-1.15-1.784-.271-.684-.407-1.427-.407-2.23v-.031c0-.761.14-1.486.418-2.175.279-.688.67-1.291,1.174-1.807.504-.517,1.103-.926,1.797-1.229.693-.303,1.453-.454,2.277-.454.48,0,.915.034,1.307.102.391.068.753.165,1.087.29s.65.279.947.462.587.394.868.634l-1.221,1.456c-.208-.177-.422-.339-.642-.485-.219-.146-.448-.269-.688-.368s-.503-.177-.79-.235c-.287-.057-.603-.086-.947-.086-.5,0-.968.104-1.4.313-.433.209-.809.489-1.127.839-.318.35-.568.76-.751,1.23-.183.471-.273.967-.273,1.49v.031c0,.565.088,1.087.265,1.568.178.481.43.894.758,1.239.327.345.718.617,1.171.815.452.199.96.298,1.521.298.521,0,1.007-.076,1.46-.228s.846-.354,1.179-.606v-2.061h-2.802v-1.675h4.664v4.601c-.271.229-.571.449-.899.657-.329.209-.684.391-1.064.548-.381.156-.79.279-1.229.368s-.897.133-1.377.133h-.002,0Z"></path><path class="st0" d="M451.69,73.894c-.845,0-1.653-.144-2.425-.431-.772-.287-1.487-.728-2.145-1.322l1.158-1.377c.532.459,1.069.812,1.612,1.057.542.245,1.157.368,1.847.368.594,0,1.066-.125,1.416-.375s.524-.584.524-1.001v-.032c0-.198-.034-.373-.103-.524-.067-.151-.193-.295-.376-.431-.184-.135-.435-.26-.754-.375-.318-.115-.734-.229-1.247-.344-.586-.135-1.106-.29-1.561-.461-.455-.172-.837-.381-1.146-.626s-.544-.545-.706-.9-.243-.783-.243-1.283v-.032c0-.469.093-.899.279-1.291.187-.391.442-.725.768-1.001.326-.276.719-.493,1.177-.649.458-.157.958-.235,1.501-.235.803,0,1.525.118,2.167.352.642.235,1.244.577,1.808,1.025l-1.032,1.455c-.501-.365-.997-.644-1.487-.837s-.985-.29-1.486-.29c-.563,0-1.002.125-1.314.375-.313.25-.47.558-.47.923v.031c0,.209.036.394.109.556s.207.308.4.438c.193.131.46.253.8.368s.771.235,1.295.36c.575.146,1.085.308,1.529.485.444.178.813.394,1.106.649.293.256.515.553.667.892.151.339.228.733.228,1.182v.031c0,.511-.096.97-.287,1.377-.192.407-.458.751-.8,1.033s-.752.496-1.23.642c-.479.146-1.006.219-1.58.219h.001Z"></path></g><rect class="st0" x="118.331" y="67.567" width="19.346" height="1.088"></rect><rect class="st0" x="468.798" y="67.567" width="19.346" height="1.088"></rect><path class="st0" d="M460.415,64.498c0,.95-.764,1.703-1.734,1.703s-1.745-.753-1.745-1.703.774-1.693,1.755-1.693c.96,0,1.724.743,1.724,1.693ZM457.37,64.498c0,.753.568,1.352,1.321,1.352.733.01,1.29-.598,1.29-1.342,0-.753-.558-1.362-1.311-1.362-.733,0-1.301.609-1.301,1.352h0ZM458.412,65.376h-.392v-1.693c.155-.021.371-.052.65-.052.32,0,.464.052.578.134.103.072.176.196.176.361,0,.206-.155.341-.351.402v.021c.165.051.248.186.299.413.052.258.093.351.124.413h-.413c-.052-.062-.083-.207-.134-.413-.031-.176-.134-.258-.351-.258h-.186v.671h0ZM458.423,64.426h.186c.217,0,.392-.072.392-.248,0-.155-.114-.258-.361-.258-.103,0-.175.01-.217.021v.485Z"></path></g><g><g><polygon class="st1" points="40.212 .312 32.358 8.17 48.097 8.17 40.212 .312"></polygon><polygon class="st1" points="31.08 9.414 21.661 18.87 58.721 18.87 49.265 9.408 31.08 9.414"></polygon><polygon class="st1" points="20.389 20.148 10.932 29.598 69.412 29.598 59.973 20.148 20.389 20.148"></polygon><polygon class="st1" points="77.595 37.799 29.973 37.799 29.973 40.355 .185 40.355 9.68 30.88 70.702 30.906 77.595 37.799"></polygon><polygon class="st1" points="69.658 52.308 60.106 61.862 20.466 61.862 10.912 52.332 69.658 52.308"></polygon><polygon class="st1" points="58.904 63.064 49.35 72.614 31.236 72.614 21.701 63.09 58.904 63.064"></polygon><polygon class="st1" points="48.276 73.737 40.358 81.688 32.358 73.739 48.276 73.737"></polygon><polygon class="st1" points="29.973 41.598 .205 41.598 9.718 51.107 70.915 51.107 77.908 44.111 29.961 44.178 29.973 41.598"></polygon></g><g><path class="st1" d="M121.844,41.183c-2.777-2.491-3.464-5.756-3.464-8.475,0-1.92.659-5.272,3.208-7.82,1.718-1.718,4.323-3.062,8.734-3.062,1.145,0,2.75.085,4.151.341,1.088.203,2.005.373,2.92.431.315.03.372.144.372.315,0,.228-.085.573-.142,1.603-.057.948-.057,2.519-.087,2.948-.028.432-.086.606-.257.606-.201,0-.228-.202-.228-.606,0-1.115-.46-2.289-1.203-2.918-1.002-.859-3.208-1.633-5.727-1.633-3.807,0-5.583,1.117-6.585,2.092-2.091,2.001-2.577,4.552-2.577,7.471,0,5.47,4.208,10.479,10.337,10.479,2.147,0,3.838-.254,4.982-1.429.603-.63.975-1.89,1.06-2.407.057-.314.114-.428.287-.428.142,0,.2.199.2.428,0,.202-.344,2.694-.629,3.666-.172.543-.23.602-.745.831-1.145.459-3.321.659-5.155.659-4.295,0-7.187-1.06-9.45-3.092Z"></path><path class="st1" d="M147.1,35.626c0,4.211.115,6.044.631,6.558.457.458,1.202.657,3.435.657,1.519,0,2.779-.029,3.466-.856.372-.459.659-1.174.745-1.719.028-.228.086-.372.258-.372.144,0,.172.115.172.431,0,.314-.2,2.031-.43,2.863-.201.659-.287.773-1.803.773-4.125,0-6.015-.171-7.674-.171-.116,0-.603.03-1.174.03-.573.027-1.203.055-1.632.055-.314,0-.459-.055-.459-.228,0-.085.058-.173.229-.173.258,0,.602-.054.86-.115.572-.113.715-.744.83-1.574.144-1.204.144-3.464.144-6.212v-5.042c0-4.466,0-5.27-.057-6.185-.057-.976-.286-1.432-1.231-1.63-.23-.059-.716-.086-.975-.086-.114,0-.229-.058-.229-.173,0-.173.143-.227.458-.227,1.288,0,3.092.084,3.237.084.141,0,2.233-.084,3.091-.084.315,0,.459.054.459.227,0,.115-.114.173-.228.173-.2,0-.602.027-.945.086-.831.142-1.06.625-1.119,1.63-.056.915-.056,1.718-.056,6.185v5.096Z"></path><path class="st1" d="M164.052,35.571c0,2.748,0,5.008.144,6.212.085.83.256,1.461,1.115,1.574.401.06,1.031.115,1.289.115.172,0,.228.087.228.173,0,.143-.143.228-.459.228-1.574,0-3.378-.085-3.521-.085s-1.947.085-2.806.085c-.314,0-.459-.055-.459-.228,0-.085.058-.173.23-.173.257,0,.6-.054.859-.115.573-.113.715-.744.83-1.574.143-1.204.143-3.464.143-6.212v-5.042c0-4.466,0-5.27-.058-6.185-.057-.976-.343-1.457-.974-1.603-.314-.086-.686-.114-.887-.114-.115,0-.229-.058-.229-.173,0-.173.143-.227.457-.227.945,0,2.749.084,2.893.084s1.947-.084,2.806-.084c.315,0,.46.054.46.227,0,.115-.115.173-.23.173-.199,0-.372.027-.715.086-.774.142-1.002.625-1.059,1.63-.057.915-.057,1.718-.057,6.185v5.042Z"></path><path class="st1" d="M174.245,30.529c0-4.466,0-5.27-.057-6.185-.057-.976-.285-1.432-1.231-1.63-.23-.059-.716-.086-.974-.086-.115,0-.229-.058-.229-.173,0-.173.143-.227.458-.227,1.288,0,3.092.084,3.235.084.574,0,6.386,0,7.044-.029.543-.029,1.003-.029,1.261-.115.171-.054.285-.171.401-.171.114,0,.171.117.171.257,0,.202-.141.546-.228,1.346-.028.287-.086,1.546-.142,1.891-.03.143-.086.315-.23.315-.144,0-.201-.142-.201-.341,0-.23-.085-.715-.258-1.091-.172-.374-.83-.887-1.946-.915l-4.41-.089c-.172,0-.258.089-.258.318v7.903c0,.171.03.255.2.255l3.667-.025c.485,0,.885,0,1.287-.029.687-.056,1.06-.144,1.317-.517.115-.143.2-.286.315-.286.115,0,.142.086.142.23,0,.17-.142.656-.228,1.604-.057.572-.114,1.718-.114,1.917,0,.258,0,.543-.202.543-.141,0-.2-.112-.2-.257-.028-.287-.056-.688-.172-1.028-.143-.402-.6-.919-1.489-1.031-.717-.088-3.837-.088-4.324-.088-.143,0-.2.058-.2.258v2.437c0,2.748,0,5.008.143,6.212.087.83.258,1.461,1.117,1.574.402.06,1.032.115,1.288.115.172,0,.23.087.23.173,0,.143-.144.228-.459.228-1.573,0-3.379-.085-3.522-.085s-1.947.085-2.805.085c-.316,0-.459-.055-.459-.228,0-.085.057-.173.228-.173.259,0,.602-.054.861-.115.572-.113.715-.744.829-1.574.143-1.204.143-3.464.143-6.212v-5.042Z"></path><path class="st1" d="M191.196,30.529c0-4.466,0-5.27-.056-6.185-.058-.976-.286-1.432-1.231-1.63-.231-.059-.716-.086-.974-.086-.114,0-.229-.058-.229-.173,0-.173.143-.227.458-.227,1.288,0,3.092.084,3.236.084.574,0,6.385,0,7.044-.029.543-.029,1.002-.029,1.26-.115.172-.054.285-.171.402-.171.114,0,.169.117.169.257,0,.202-.141.546-.228,1.346-.027.287-.085,1.546-.142,1.891-.029.143-.086.315-.23.315s-.2-.142-.2-.341c0-.23-.086-.715-.257-1.091-.173-.374-.831-.887-1.948-.915l-4.41-.089c-.172,0-.257.089-.257.318v7.903c0,.171.027.255.199.255l3.665-.025c.487,0,.887,0,1.289-.029.687-.056,1.059-.144,1.317-.517.115-.143.2-.286.315-.286.115,0,.142.086.142.23,0,.17-.142.656-.228,1.604-.057.572-.115,1.718-.115,1.917,0,.258,0,.543-.201.543-.141,0-.199-.112-.199-.257-.029-.287-.057-.688-.172-1.028-.142-.402-.601-.919-1.489-1.031-.715-.088-3.837-.088-4.324-.088-.142,0-.199.058-.199.258v2.437c0,2.748,0,5.008.142,6.212.085.83.257,1.461,1.116,1.574.402.06,1.032.115,1.29.115.171,0,.228.087.228.173,0,.143-.144.228-.459.228-1.574,0-3.379-.085-3.521-.085-.143,0-1.947.085-2.806.085-.315,0-.458-.055-.458-.228,0-.085.058-.173.228-.173.257,0,.602-.054.86-.115.572-.113.715-.744.831-1.574.141-1.204.141-3.464.141-6.212v-5.042Z"></path><path class="st1" d="M216.167,21.826c6.442,0,11.252,4.064,11.252,10.737,0,6.413-4.523,11.712-11.424,11.712-7.847,0-11.11-6.098-11.11-11.254,0-4.64,3.379-11.195,11.282-11.195ZM216.767,43.186c2.577,0,7.904-1.489,7.904-9.821,0-6.874-4.181-10.566-8.706-10.566-4.782,0-8.361,3.149-8.361,9.418,0,6.674,4.01,10.969,9.163,10.969Z"></path><path class="st1" d="M233.496,30.529c0-4.466,0-5.27-.058-6.185-.058-.976-.287-1.432-1.232-1.63-.229-.059-.715-.086-.973-.086-.114,0-.229-.058-.229-.173,0-.173.144-.227.459-.227,1.289,0,3.093.084,3.236.084.315,0,2.492-.084,3.378-.084,1.804,0,3.723.171,5.24,1.258.717.513,1.977,1.917,1.977,3.896,0,2.12-.887,4.238-3.465,6.615,2.348,3.005,4.295,5.552,5.957,7.327,1.546,1.631,2.776,1.949,3.493,2.063.543.086.945.086,1.117.086.143,0,.256.087.256.173,0,.173-.171.228-.685.228h-2.033c-1.603,0-2.32-.145-3.065-.545-1.231-.656-2.233-2.061-3.865-4.209-1.203-1.573-2.549-3.493-3.122-4.238-.115-.114-.2-.172-.372-.172l-3.522-.056c-.143,0-.2.086-.2.228v.69c0,2.748,0,5.008.143,6.212.085.83.257,1.461,1.117,1.574.399.06,1.029.115,1.288.115.172,0,.228.087.228.173,0,.143-.142.228-.458.228-1.575,0-3.379-.085-3.522-.085-.028,0-1.832.085-2.69.085-.315,0-.46-.055-.46-.228,0-.085.058-.173.229-.173.258,0,.601-.054.858-.115.574-.113.717-.744.831-1.574.144-1.204.144-3.464.144-6.212v-5.042ZM235.787,33.021c0,.144.057.257.2.344.43.257,1.748.459,3.007.459.687,0,1.49-.085,2.148-.546,1.003-.688,1.747-2.233,1.747-4.409,0-3.578-1.891-5.727-4.953-5.727-.86,0-1.632.085-1.919.173-.143.054-.229.171-.229.344v9.362Z"></path><path class="st1" d="M255.086,30.529c0-4.466,0-5.27-.057-6.185-.056-.976-.286-1.432-1.231-1.63-.229-.059-.715-.086-.974-.086-.115,0-.229-.058-.229-.173,0-.173.143-.227.459-.227,1.289,0,3.093.084,3.236.084.344,0,2.148-.084,3.865-.084,2.835,0,8.075-.26,11.483,3.262,1.431,1.49,2.778,3.868,2.778,7.273,0,3.608-1.489,6.386-3.094,8.075-1.231,1.291-3.806,3.293-8.676,3.293-2.462,0-6.07-.342-6.356-.342-.143,0-1.947.085-2.807.085-.314,0-.457-.055-.457-.228,0-.085.057-.173.229-.173.257,0,.6-.054.858-.115.574-.113.715-.744.83-1.574.143-1.204.143-3.464.143-6.212v-5.042ZM257.492,33.621c0,3.037.029,5.671.057,6.215.029.715.086,1.86.315,2.175.372.545,1.488,1.145,4.868,1.145,2.664,0,5.125-.973,6.816-2.662,1.489-1.46,2.291-4.209,2.291-6.844,0-3.637-1.576-5.984-2.75-7.215-2.692-2.836-5.956-3.237-9.363-3.237-.574,0-1.632.086-1.861.199-.258.115-.343.26-.343.575-.029.973-.029,3.894-.029,6.099v3.549Z"></path><path class="st1" d="M293.056,35.626c0,4.211.116,6.044.631,6.558.457.458,1.2.657,3.435.657,1.518,0,2.778-.029,3.463-.856.375-.459.66-1.174.745-1.719.031-.228.088-.372.259-.372.145,0,.172.115.172.431,0,.314-.199,2.031-.431,2.863-.198.659-.285.773-1.801.773-4.125,0-6.015-.171-7.676-.171-.114,0-.602.03-1.173.03-.573.027-1.202.055-1.633.055-.315,0-.458-.055-.458-.228,0-.085.056-.173.23-.173.256,0,.601-.054.857-.115.574-.113.717-.744.831-1.574.143-1.204.143-3.464.143-6.212v-5.042c0-4.466,0-5.27-.057-6.185-.057-.976-.285-1.432-1.231-1.63-.23-.059-.717-.086-.974-.086-.116,0-.229-.058-.229-.173,0-.173.145-.227.459-.227,1.288,0,3.091.084,3.235.084s2.234-.084,3.093-.084c.315,0,.458.054.458.227,0,.115-.113.173-.227.173-.201,0-.602.027-.946.086-.831.142-1.059.625-1.117,1.63-.057.915-.057,1.718-.057,6.185v5.096Z"></path><path class="st1" d="M313.254,22.942c.343-.946.458-1.116.631-1.116.172,0,.286.141.629,1.03.431,1.088,4.925,12.913,6.673,17.265,1.031,2.551,1.86,3.006,2.461,3.179.431.142.859.171,1.147.171.172,0,.285.029.285.173,0,.173-.257.228-.573.228-.429,0-2.52,0-4.495-.055-.544-.03-.86-.03-.86-.202,0-.115.087-.173.201-.198.172-.06.344-.319.172-.776l-2.664-7.042c-.056-.118-.112-.173-.258-.173h-6.155c-.143,0-.23.085-.287.228l-1.718,5.068c-.258.717-.402,1.405-.402,1.919,0,.573.601.83,1.089.83h.286c.202,0,.286.058.286.173,0,.173-.171.228-.429.228-.688,0-1.918-.085-2.233-.085-.317,0-1.89.085-3.238.085-.37,0-.542-.055-.542-.228,0-.115.114-.173.257-.173.204,0,.602-.029.832-.054,1.315-.173,1.889-1.263,2.405-2.694l6.5-17.781ZM316.233,34.395c.142,0,.142-.085.113-.2l-2.718-7.73c-.145-.432-.289-.432-.433,0l-2.52,7.73c-.054.142,0,.2.087.2h5.471Z"></path><path class="st1" d="M344.393,39.923h.112c.775-2.635,3.41-10.938,4.411-14.605.286-1.06.316-1.462.316-1.833,0-.514-.316-.857-1.633-.857-.141,0-.258-.087-.258-.202,0-.144.146-.198.487-.198,1.462,0,2.664.084,2.922.084.198,0,1.432-.084,2.32-.084.257,0,.399.054.399.171,0,.142-.085.229-.257.229-.114,0-.66.027-.976.141-.857.317-1.314,1.518-1.86,3.092-1.258,3.64-4.15,12.742-5.265,15.953-.747,2.117-.889,2.461-1.205,2.461-.287,0-.458-.373-.858-1.49l-5.611-15.919h-.059c-1.029,2.749-4.953,13.23-5.984,15.89-.459,1.202-.602,1.518-.945,1.518-.288,0-.432-.316-1.001-2.263l-5.098-16.98c-.457-1.519-.831-1.946-1.577-2.233-.37-.144-1.087-.171-1.288-.171-.143,0-.257-.03-.257-.202,0-.144.172-.198.458-.198,1.49,0,3.065.084,3.38.084.258,0,1.517-.084,2.95-.084.398,0,.515.084.515.198,0,.172-.145.202-.288.202-.228,0-.774,0-1.118.171-.17.088-.37.316-.37.686s.258,1.376.542,2.634c.431,1.833,3.41,12.34,3.838,13.859h.059l6.069-16.32c.429-1.174.543-1.318.715-1.318.2,0,.372.374.715,1.346l5.699,16.236Z"></path><path class="st1" d="M375.46,21.826c6.444,0,11.254,4.064,11.254,10.737,0,6.413-4.523,11.712-11.423,11.712-7.846,0-11.111-6.098-11.111-11.254,0-4.64,3.378-11.195,11.28-11.195ZM376.061,43.186c2.579,0,7.905-1.489,7.905-9.821,0-6.874-4.182-10.566-8.706-10.566-4.781,0-8.361,3.149-8.361,9.418,0,6.674,4.009,10.969,9.162,10.969Z"></path><path class="st1" d="M392.791,30.529c0-4.466,0-5.27-.055-6.185-.058-.976-.288-1.432-1.233-1.63-.229-.059-.717-.086-.974-.086-.114,0-.227-.058-.227-.173,0-.173.14-.227.456-.227,1.287,0,3.091.084,3.235.084.573,0,6.385,0,7.046-.029.543-.029,1.001-.029,1.258-.115.171-.054.285-.171.401-.171.115,0,.172.117.172.257,0,.202-.145.546-.226,1.346-.03.287-.089,1.546-.145,1.891-.03.143-.087.315-.229.315-.144,0-.202-.142-.202-.341,0-.23-.086-.715-.258-1.091-.168-.374-.831-.887-1.947-.915l-4.409-.089c-.17,0-.257.089-.257.318v7.903c0,.171.027.255.199.255l3.666-.025c.488,0,.886,0,1.287-.029.69-.056,1.061-.144,1.319-.517.113-.143.2-.286.313-.286.116,0,.144.086.144.23,0,.17-.144.656-.227,1.604-.058.572-.118,1.718-.118,1.917,0,.258,0,.543-.198.543-.146,0-.202-.112-.202-.257-.028-.287-.055-.688-.17-1.028-.144-.402-.603-.919-1.488-1.031-.718-.088-3.838-.088-4.326-.088-.143,0-.199.058-.199.258v2.437c0,2.748,0,5.008.141,6.212.089.83.259,1.461,1.119,1.574.401.06,1.031.115,1.288.115.172,0,.23.087.23.173,0,.143-.145.228-.461.228-1.576,0-3.378-.085-3.521-.085-.144,0-1.948.085-2.806.085-.312,0-.456-.055-.456-.228,0-.085.054-.173.226-.173.259,0,.6-.054.859-.115.573-.113.716-.744.83-1.574.144-1.204.144-3.464.144-6.212v-5.042Z"></path><path class="st1" d="M409.742,30.529c0-4.466,0-5.27-.057-6.185-.056-.976-.285-1.432-1.232-1.63-.228-.059-.715-.086-.973-.086-.113,0-.23-.058-.23-.173,0-.173.144-.227.46-.227,1.288,0,3.094.084,3.235.084.573,0,6.385,0,7.047-.029.542-.029,1.002-.029,1.258-.115.172-.054.287-.171.4-.171.113,0,.172.117.172.257,0,.202-.144.546-.227,1.346-.031.287-.089,1.546-.144,1.891-.03.143-.089.315-.231.315-.143,0-.2-.142-.2-.341,0-.23-.085-.715-.257-1.091-.171-.374-.834-.887-1.947-.915l-4.411-.089c-.171,0-.257.089-.257.318v7.903c0,.171.028.255.199.255l3.665-.025c.488,0,.889,0,1.288-.029.69-.056,1.061-.144,1.318-.517.114-.143.202-.286.316-.286s.142.086.142.23c0,.17-.142.656-.228,1.604-.057.572-.116,1.718-.116,1.917,0,.258,0,.543-.199.543-.144,0-.201-.112-.201-.257-.029-.287-.056-.688-.172-1.028-.141-.402-.602-.919-1.487-1.031-.716-.088-3.838-.088-4.325-.088-.141,0-.199.058-.199.258v2.437c0,2.748,0,5.008.142,6.212.088.83.259,1.461,1.118,1.574.402.06,1.029.115,1.288.115.172,0,.227.087.227.173,0,.143-.142.228-.458.228-1.575,0-3.377-.085-3.521-.085-.141,0-1.947.085-2.804.085-.317,0-.457-.055-.457-.228,0-.085.054-.173.228-.173.255,0,.599-.054.856-.115.574-.113.716-.744.83-1.574.144-1.204.144-3.464.144-6.212v-5.042Z"></path><path class="st1" d="M429.099,35.571c0,2.748,0,5.008.142,6.212.089.83.26,1.461,1.118,1.574.402.06,1.03.115,1.288.115.171,0,.23.087.23.173,0,.143-.142.228-.46.228-1.577,0-3.378-.085-3.523-.085-.141,0-1.946.085-2.804.085-.316,0-.458-.055-.458-.228,0-.085.055-.173.229-.173.259,0,.6-.054.856-.115.573-.113.717-.744.83-1.574.144-1.204.144-3.464.144-6.212v-5.042c0-4.466,0-5.27-.056-6.185-.055-.976-.344-1.457-.972-1.603-.316-.086-.687-.114-.889-.114-.115,0-.229-.058-.229-.173,0-.173.143-.227.459-.227.945,0,2.75.084,2.891.084.145,0,1.946-.084,2.808-.084.316,0,.458.054.458.227,0,.115-.116.173-.229.173-.202,0-.372.027-.715.086-.773.142-1.003.625-1.058,1.63-.059.915-.059,1.718-.059,6.185v5.042Z"></path><path class="st1" d="M439.068,41.183c-2.78-2.491-3.466-5.756-3.466-8.475,0-1.92.658-5.272,3.209-7.82,1.717-1.718,4.322-3.062,8.732-3.062,1.146,0,2.748.085,4.152.341,1.088.203,2.004.373,2.921.431.313.03.371.144.371.315,0,.228-.087.573-.142,1.603-.057.948-.057,2.519-.086,2.948-.03.432-.088.606-.26.606-.199,0-.227-.202-.227-.606,0-1.115-.456-2.289-1.204-2.918-.998-.859-3.207-1.633-5.725-1.633-3.808,0-5.585,1.117-6.585,2.092-2.09,2.001-2.578,4.552-2.578,7.471,0,5.47,4.209,10.479,10.337,10.479,2.147,0,3.838-.254,4.981-1.429.604-.63.975-1.89,1.06-2.407.058-.314.114-.428.288-.428.142,0,.199.199.199.428,0,.202-.343,2.694-.631,3.666-.168.543-.227.602-.743.831-1.145.459-3.322.659-5.155.659-4.295,0-7.187-1.06-9.448-3.092Z"></path><path class="st1" d="M461.918,30.529c0-4.466,0-5.27-.059-6.185-.056-.976-.285-1.432-1.229-1.63-.23-.059-.718-.086-.976-.086-.115,0-.23-.058-.23-.173,0-.173.146-.227.462-.227,1.286,0,3.09.084,3.233.084.203,0,5.901,0,6.559-.029.543-.029,1.001-.084,1.23-.144.145-.025.257-.142.402-.142.085,0,.114.117.114.257,0,.202-.142.546-.227,1.346-.032.287-.086,1.546-.144,1.891-.027.143-.086.315-.202.315-.171,0-.228-.142-.228-.372,0-.199-.03-.684-.171-1.031-.202-.457-.487-.802-2.035-.973-.484-.059-3.607-.088-3.92-.088-.117,0-.172.088-.172.289v7.903c0,.202.028.288.172.288.371,0,3.893,0,4.552-.058.688-.055,1.089-.115,1.345-.399.199-.232.316-.375.43-.375.086,0,.144.057.144.23,0,.17-.144.656-.23,1.604-.056.572-.114,1.633-.114,1.831,0,.228,0,.545-.202.545-.14,0-.198-.115-.198-.258,0-.288,0-.575-.114-.944-.116-.402-.372-.891-1.49-1.005-.775-.085-3.609-.144-4.095-.144-.144,0-.199.087-.199.202v2.521c0,.972-.03,4.292,0,4.896.086,1.976.515,2.345,3.32,2.345.745,0,2.004,0,2.749-.313.746-.315,1.09-.887,1.288-2.061.058-.317.118-.431.259-.431.175,0,.175.228.175.431,0,.229-.234,2.175-.375,2.776-.2.745-.429.745-1.544.745-4.326,0-6.244-.171-7.075-.171-.055,0-.543.03-1.146.03-.571.027-1.231.055-1.658.055-.316,0-.459-.055-.459-.228,0-.085.056-.173.228-.173.258,0,.601-.054.858-.115.574-.113.716-.744.83-1.574.146-1.204.146-3.464.146-6.212v-5.042Z"></path><path class="st1" d="M477.55,43.501c-.399-.2-.43-.315-.43-1.087,0-1.434.114-2.578.146-3.037.026-.314.085-.458.227-.458.172,0,.202.087.202.314,0,.257,0,.659.085,1.06.431,2.12,2.318,2.92,4.238,2.92,2.75,0,4.094-1.976,4.094-3.807,0-1.975-.829-3.121-3.292-5.155l-1.29-1.059c-3.035-2.491-3.721-4.268-3.721-6.214,0-3.065,2.289-5.154,5.927-5.154,1.116,0,1.948.114,2.66.287.546.115.776.14,1.006.14.227,0,.286.058.286.202,0,.143-.114,1.087-.114,3.035,0,.459-.058.658-.202.658-.172,0-.2-.144-.227-.372-.031-.343-.203-1.116-.374-1.431-.172-.315-.945-1.516-3.58-1.516-1.976,0-3.523,1.231-3.523,3.319,0,1.632.802,2.605,3.494,4.813l.8.629c3.381,2.662,4.181,4.438,4.181,6.729,0,1.171-.456,3.351-2.43,4.752-1.232.859-2.781,1.203-4.326,1.203-1.344,0-2.663-.2-3.838-.774Z"></path></g><path class="st1" d="M501.815,25.504c0,2.198-1.768,3.942-4.013,3.942s-4.038-1.744-4.038-3.942,1.792-3.918,4.062-3.918c2.222,0,3.99,1.72,3.99,3.918ZM494.768,25.504c0,1.744,1.314,3.129,3.058,3.129,1.696.024,2.987-1.385,2.987-3.106,0-1.744-1.29-3.153-3.034-3.153-1.696,0-3.01,1.409-3.01,3.13ZM497.181,27.535h-.908v-3.918c.358-.048.86-.12,1.505-.12.74,0,1.075.12,1.337.311.239.167.406.454.406.836,0,.477-.358.788-.812.931v.049c.382.119.573.43.693.955.12.597.215.812.287.955h-.955c-.12-.144-.191-.478-.311-.955-.072-.406-.311-.598-.812-.598h-.43v1.553ZM497.204,25.337h.43c.502,0,.908-.167.908-.573,0-.359-.263-.598-.836-.598-.239,0-.406.024-.502.048v1.124Z"></path><g><path class="st1" d="M151.143,54.776h4.882c.688,0,1.299.097,1.831.29s.976.461,1.33.806c.292.303.517.652.673,1.049.156.396.234.834.234,1.314v.031c0,.449-.065.853-.195,1.213-.131.36-.311.678-.54.955s-.503.511-.822.704c-.318.193-.67.342-1.056.446l2.958,4.147h-2.269l-2.7-3.818h-2.417v3.818h-1.909v-10.955ZM155.878,60.206c.69,0,1.24-.165,1.648-.495s.612-.778.612-1.344v-.031c0-.597-.199-1.05-.597-1.359s-.958-.464-1.68-.464h-2.81v3.693h2.826Z"></path><path class="st1" d="M163.35,54.776h1.909v10.955h-1.909v-10.955Z"></path><path class="st1" d="M174.179,65.919c-.855,0-1.633-.144-2.332-.431-.699-.287-1.296-.683-1.792-1.189-.496-.506-.879-1.101-1.15-1.784-.271-.684-.407-1.427-.407-2.23v-.031c0-.761.139-1.486.418-2.175.278-.688.669-1.291,1.174-1.807.503-.517,1.103-.926,1.796-1.229s1.453-.454,2.277-.454c.48,0,.916.034,1.307.102.392.068.754.165,1.088.29.333.125.649.279.947.462s.587.394.869.634l-1.221,1.456c-.209-.177-.423-.339-.642-.485-.219-.146-.449-.269-.688-.368-.24-.099-.504-.177-.791-.235-.287-.057-.603-.086-.947-.086-.501,0-.968.104-1.401.313-.433.209-.809.489-1.126.839-.318.35-.569.76-.751,1.23-.183.471-.273.967-.273,1.49v.031c0,.565.088,1.087.265,1.568.177.481.429.894.757,1.239.328.345.718.617,1.171.815.453.199.96.298,1.522.298.521,0,1.007-.076,1.459-.228.453-.152.846-.354,1.179-.606v-2.061h-2.801v-1.675h4.664v4.601c-.271.229-.571.449-.9.657-.329.209-.684.391-1.064.548-.381.156-.791.279-1.229.368-.438.088-.897.133-1.377.133Z"></path><path class="st1" d="M182.035,54.776h1.909v4.554h5.258v-4.554h1.909v10.955h-1.909v-4.617h-5.258v4.617h-1.909v-10.955Z"></path><path class="st1" d="M197.402,56.56h-3.474v-1.784h8.889v1.784h-3.475v9.171h-1.94v-9.171Z"></path><path class="st1" d="M205.744,54.776h1.909v10.955h-1.909v-10.955Z"></path><path class="st1" d="M211.377,54.776h1.78l5.856,7.574v-7.574h1.909v10.955h-1.608l-6.028-7.793v7.793h-1.909v-10.955Z"></path><path class="st1" d="M229.718,65.919c-.855,0-1.633-.144-2.332-.431-.699-.287-1.296-.683-1.792-1.189-.496-.506-.879-1.101-1.15-1.784-.271-.684-.407-1.427-.407-2.23v-.031c0-.761.139-1.486.418-2.175.278-.688.669-1.291,1.174-1.807.503-.517,1.103-.926,1.796-1.229s1.453-.454,2.277-.454c.48,0,.916.034,1.307.102.392.068.754.165,1.088.29.333.125.649.279.947.462s.587.394.869.634l-1.221,1.456c-.209-.177-.423-.339-.642-.485-.219-.146-.449-.269-.688-.368-.24-.099-.504-.177-.791-.235-.287-.057-.603-.086-.947-.086-.501,0-.968.104-1.401.313-.433.209-.809.489-1.126.839-.318.35-.569.76-.751,1.23-.183.471-.273.967-.273,1.49v.031c0,.565.088,1.087.265,1.568.177.481.429.894.757,1.239.328.345.718.617,1.171.815.453.199.96.298,1.522.298.521,0,1.007-.076,1.459-.228.453-.152.846-.354,1.179-.606v-2.061h-2.801v-1.675h4.664v4.601c-.271.229-.571.449-.9.657-.329.209-.684.391-1.064.548-.381.156-.791.279-1.229.368-.438.088-.897.133-1.377.133Z"></path><path class="st1" d="M245.743,56.56h-3.474v-1.784h8.888v1.784h-3.473v9.171h-1.941v-9.171Z"></path><path class="st1" d="M253.975,54.776h1.909v4.554h5.259v-4.554h1.909v10.955h-1.909v-4.617h-5.259v4.617h-1.909v-10.955Z"></path><path class="st1" d="M266.651,54.776h8.106v1.737h-6.197v2.817h5.493v1.737h-5.493v2.926h6.275v1.737h-8.185v-10.955Z"></path><path class="st1" d="M283.395,54.776h1.909v4.554h5.259v-4.554h1.909v10.955h-1.909v-4.617h-5.259v4.617h-1.909v-10.955Z"></path><path class="st1" d="M296.072,54.776h8.106v1.737h-6.197v2.817h5.493v1.737h-5.493v2.926h6.275v1.737h-8.185v-10.955Z"></path><path class="st1" d="M311.222,54.697h1.783l4.82,11.033h-2.034l-1.111-2.645h-5.18l-1.127,2.645h-1.972l4.82-11.033ZM313.976,61.38l-1.894-4.382-1.878,4.382h3.771Z"></path><path class="st1" d="M319.547,54.776h2.128l3.302,8.419,3.287-8.419h2.081l-4.554,11.033h-1.69l-4.554-11.033Z"></path><path class="st1" d="M333.114,54.776h1.91v10.955h-1.91v-10.955Z"></path><path class="st1" d="M338.748,54.776h8.106v1.737h-6.197v2.817h5.493v1.737h-5.493v2.926h6.275v1.737h-8.185v-10.955Z"></path><path class="st1" d="M353.865,65.887c-.845,0-1.653-.144-2.425-.431-.772-.287-1.487-.728-2.145-1.322l1.158-1.377c.532.459,1.069.812,1.612,1.057.542.245,1.157.368,1.847.368.594,0,1.066-.125,1.416-.375s.524-.584.524-1.001v-.032c0-.198-.034-.373-.103-.524-.067-.151-.193-.295-.376-.431-.184-.135-.435-.26-.754-.375-.318-.115-.734-.229-1.247-.344-.586-.135-1.106-.29-1.561-.461-.455-.172-.837-.381-1.146-.626s-.544-.545-.706-.9-.243-.783-.243-1.283v-.032c0-.469.093-.899.279-1.291.187-.391.442-.725.768-1.001.326-.276.719-.493,1.177-.649.458-.157.958-.235,1.501-.235.803,0,1.525.118,2.167.352.642.235,1.244.577,1.808,1.025l-1.032,1.455c-.501-.365-.997-.644-1.487-.837s-.985-.29-1.486-.29c-.563,0-1.002.125-1.314.375-.313.25-.47.558-.47.923v.031c0,.209.036.394.109.556s.207.308.4.438c.193.131.46.253.8.368.34.115.771.235,1.295.36.575.146,1.085.308,1.529.485.444.178.813.394,1.106.649.293.256.515.553.667.892.151.339.228.733.228,1.182v.031c0,.511-.096.97-.287,1.377-.192.407-.458.751-.8,1.033s-.752.496-1.23.642c-.479.146-1.006.219-1.58.219Z"></path><path class="st1" d="M363.506,56.56h-3.475v-1.784h8.889v1.784h-3.474v9.171h-1.94v-9.171Z"></path><path class="st1" d="M376.369,54.776h2.081l2.613,8.122,2.692-8.153h1.627l2.692,8.153,2.613-8.122h2.019l-3.818,11.033h-1.659l-2.691-7.872-2.691,7.872h-1.659l-3.818-11.033Z"></path><path class="st1" d="M395.462,54.776h4.883c.688,0,1.299.097,1.831.29s.976.461,1.33.806c.292.303.517.652.673,1.049.157.396.235.834.235,1.314v.031c0,.449-.065.853-.196,1.213-.13.36-.311.678-.54.955s-.503.511-.821.704c-.318.193-.67.342-1.057.446l2.958,4.147h-2.269l-2.7-3.818h-2.418v3.818h-1.909v-10.955ZM400.197,60.206c.69,0,1.24-.165,1.648-.495.407-.33.612-.778.612-1.344v-.031c0-.597-.199-1.05-.597-1.359-.398-.309-.958-.464-1.68-.464h-2.811v3.693h2.826Z"></path><path class="st1" d="M412.786,65.919c-.846,0-1.617-.149-2.316-.446-.699-.297-1.299-.702-1.8-1.213-.501-.511-.892-1.108-1.174-1.792-.281-.683-.423-1.411-.423-2.183v-.031c0-.772.142-1.5.423-2.183.282-.683.679-1.283,1.189-1.799.511-.517,1.116-.926,1.815-1.229s1.471-.454,2.316-.454,1.617.149,2.315.446c.699.297,1.3.702,1.8,1.212.501.512.893,1.109,1.174,1.792.282.684.423,1.411.423,2.183v.031c0,.772-.141,1.5-.423,2.183-.281.684-.678,1.284-1.189,1.8-.511.517-1.116.926-1.815,1.229-.698.303-1.471.454-2.315.454ZM412.817,64.15c.54,0,1.036-.102,1.488-.305.451-.204.838-.48,1.16-.83.322-.349.574-.759.756-1.229.183-.469.273-.97.273-1.502v-.031c0-.532-.091-1.035-.273-1.51-.182-.475-.437-.887-.764-1.236s-.719-.628-1.176-.837c-.458-.208-.956-.313-1.496-.313s-1.036.102-1.488.305c-.452.203-.839.48-1.161.829-.322.35-.574.759-.756,1.229-.182.47-.272.971-.272,1.502v.031c0,.532.091,1.036.272,1.51.182.475.437.887.764,1.236.327.35.72.629,1.177.837.457.209.955.313,1.496.313Z"></path><path class="st1" d="M421.643,54.776h1.78l5.857,7.574v-7.574h1.909v10.955h-1.609l-6.028-7.793v7.793h-1.909v-10.955Z"></path><path class="st1" d="M439.985,65.919c-.855,0-1.633-.144-2.332-.431-.699-.287-1.297-.683-1.792-1.189-.496-.506-.879-1.101-1.15-1.784-.271-.684-.407-1.427-.407-2.23v-.031c0-.761.14-1.486.418-2.175.279-.688.67-1.291,1.174-1.807.504-.517,1.103-.926,1.797-1.229.693-.303,1.453-.454,2.277-.454.48,0,.915.034,1.307.102.391.068.753.165,1.087.29.334.125.65.279.947.462s.587.394.868.634l-1.221,1.456c-.208-.177-.422-.339-.642-.485-.219-.146-.448-.269-.688-.368s-.503-.177-.79-.235c-.287-.057-.603-.086-.947-.086-.5,0-.968.104-1.4.313-.433.209-.809.489-1.127.839-.318.35-.568.76-.751,1.23-.183.471-.273.967-.273,1.49v.031c0,.565.088,1.087.265,1.568.178.481.43.894.758,1.239.327.345.718.617,1.171.815.452.199.96.298,1.521.298.521,0,1.007-.076,1.46-.228.453-.152.846-.354,1.179-.606v-2.061h-2.802v-1.675h4.664v4.601c-.271.229-.571.449-.899.657-.329.209-.684.391-1.064.548-.381.156-.79.279-1.229.368s-.897.133-1.377.133Z"></path><path class="st1" d="M451.69,65.887c-.845,0-1.653-.144-2.425-.431-.772-.287-1.487-.728-2.145-1.322l1.158-1.377c.532.459,1.069.812,1.612,1.057.542.245,1.157.368,1.847.368.594,0,1.066-.125,1.416-.375s.524-.584.524-1.001v-.032c0-.198-.034-.373-.103-.524-.067-.151-.193-.295-.376-.431-.184-.135-.435-.26-.754-.375-.318-.115-.734-.229-1.247-.344-.586-.135-1.106-.29-1.561-.461-.455-.172-.837-.381-1.146-.626s-.544-.545-.706-.9-.243-.783-.243-1.283v-.032c0-.469.093-.899.279-1.291.187-.391.442-.725.768-1.001.326-.276.719-.493,1.177-.649.458-.157.958-.235,1.501-.235.803,0,1.525.118,2.167.352.642.235,1.244.577,1.808,1.025l-1.032,1.455c-.501-.365-.997-.644-1.487-.837s-.985-.29-1.486-.29c-.563,0-1.002.125-1.314.375-.313.25-.47.558-.47.923v.031c0,.209.036.394.109.556s.207.308.4.438c.193.131.46.253.8.368.34.115.771.235,1.295.36.575.146,1.085.308,1.529.485.444.178.813.394,1.106.649.293.256.515.553.667.892.151.339.228.733.228,1.182v.031c0,.511-.096.97-.287,1.377-.192.407-.458.751-.8,1.033s-.752.496-1.23.642c-.479.146-1.006.219-1.58.219Z"></path></g><rect class="st1" x="118.331" y="59.561" width="19.346" height="1.088"></rect><rect class="st1" x="468.798" y="59.561" width="19.346" height="1.088"></rect></g></svg> 