<svg xmlns="http://www.w3.org/2000/svg" viewBox="0 0 1280 800" width="1280" height="800">
  <defs>
    <style>
      .navy { fill: #1a3a5c; }
      .gold { fill: #c9a84c; }
      .slate-100 { fill: #f1f5f9; }
      .slate-200 { fill: #e2e8f0; }
      .slate-400 { fill: #94a3b8; }
      .slate-600 { fill: #475569; }
      .white { fill: #ffffff; }
      .green { fill: #16a34a; }
      .blue { fill: #3b82f6; }
      .text-navy { fill: #1a3a5c; font-family: Inter, sans-serif; }
      .text-white { fill: #ffffff; font-family: Inter, sans-serif; }
      .text-gold { fill: #c9a84c; font-family: Inter, sans-serif; }
      .text-muted { fill: #94a3b8; font-family: Inter, sans-serif; }
      .text-body { fill: #475569; font-family: Inter, sans-serif; }
      .title { font-size: 20px; font-weight: 700; }
      .subtitle { font-size: 14px; }
      .body { font-size: 13px; }
      .caption { font-size: 11px; }
      .frame { fill: none; stroke: #e2e8f0; stroke-width: 1.5; }
    </style>
  </defs><rect width="1280" height="800" fill="#ffffff"/><rect width="1280" height="56" fill="#1a3a5c"/><text x="24" y="34" class="text-white title">LexiFlow — Integrations</text><rect x="40" y="90" width="1200" height="160" rx="12" fill="#ffffff" stroke="#e2e8f0" stroke-width="1.5"/><text x="70" y="120" class="text-navy title">Clio Grow (Lexicata)</text><rect x="70" y="140" width="100" height="30" rx="6" fill="#16a34a"/><text x="80" y="160" class="text-white caption">Connected</text><text x="70" y="200" class="text-muted subtitle">Last sync: 2 min ago</text><text x="70" y="225" class="text-body body">1,024 leads synced</text><rect x="1050" y="110" width="60" height="40" rx="8" fill="#16a34a"/><text x="1058" y="135" class="text-white caption">ON</text><rect x="1130" y="110" width="100" height="40" rx="8" fill="#1a3a5c"/><text x="1140" y="135" class="text-white caption">Settings</text><rect x="40" y="270" width="1200" height="160" rx="12" fill="#ffffff" stroke="#e2e8f0" stroke-width="1.5"/><text x="70" y="300" class="text-navy title">Filevine</text><rect x="70" y="320" width="100" height="30" rx="6" fill="#16a34a"/><text x="80" y="340" class="text-white caption">Connected</text><text x="70" y="380" class="text-muted subtitle">Last sync: 5 min ago</text><text x="70" y="405" class="text-body body">847 leads synced</text><rect x="1050" y="290" width="60" height="40" rx="8" fill="#16a34a"/><text x="1058" y="315" class="text-white caption">ON</text><rect x="1130" y="290" width="100" height="40" rx="8" fill="#1a3a5c"/><text x="1140" y="315" class="text-white caption">Settings</text><rect x="40" y="450" width="1200" height="160" rx="12" fill="#ffffff" stroke="#e2e8f0" stroke-width="1.5"/><text x="70" y="480" class="text-navy title">LeadDock</text><rect x="70" y="500" width="100" height="30" rx="6" fill="#94a3b8"/><text x="80" y="520" class="text-white caption">Configure</text><text x="70" y="560" class="text-muted subtitle">Connect your LeadDock account</text><text x="70" y="585" class="text-body body">Not yet connected</text><rect x="1050" y="470" width="60" height="40" rx="8" fill="#94a3b8"/><text x="1058" y="495" class="text-white caption">OFF</text><rect x="1130" y="470" width="100" height="40" rx="8" fill="#1a3a5c"/><text x="1140" y="495" class="text-white caption">Settings</text></svg>