<?xml version="1.0" encoding="utf-8"?>
<svg xmlns="http://www.w3.org/2000/svg" xmlns:xlink="http://www.w3.org/1999/xlink" width="300" height="52.882" viewBox="0 0 300 52.882">
  <defs>
    <linearGradient id="linear-gradient" y1="0.5" x2="1" y2="0.5" gradientUnits="objectBoundingBox">
      <stop offset="0" stop-color="#b08f67"/>
      <stop offset="0.496" stop-color="#f7dea3"/>
      <stop offset="1" stop-color="#b08f67"/>
    </linearGradient>
    <linearGradient id="linear-gradient-3" x1="0.484" y1="0.072" x2="0.516" y2="0.929" xlink:href="#linear-gradient"/>
  </defs>
  <g id="LOGO" transform="translate(-1499.2 -2114.925)">
    <rect id="Rectangle_283" data-name="Rectangle 283" width="126.317" height="1.06" transform="translate(1499.2 2150.957)" fill="url(#linear-gradient)"/>
    <rect id="Rectangle_284" data-name="Rectangle 284" width="143.219" height="1.06" transform="translate(1655.981 2160.776)" fill="url(#linear-gradient)"/>
    <path id="Path_1480" data-name="Path 1480" d="M1922.233,2162.156l-7.056-13.067,7.056-13.067,7.056,13.067Z" transform="translate(-280.285 -14.215)" fill="#00632b"/>
    <path id="Path_1481" data-name="Path 1481" d="M1916.476,2156.72l-9.844-18.228,9.844-18.229,9.843,18.229Zm-8.639-18.228,8.639,16,8.639-16-8.639-16Z" transform="translate(-274.528 -3.598)" fill="url(#linear-gradient-3)"/>
    <path id="Path_1482" data-name="Path 1482" d="M1602.066,2144.875c.464-.443.858-.812,1.245-1.187a5.908,5.908,0,0,1,4.391-1.7,4.7,4.7,0,0,1,4.3,2.872c.272-.259.552-.519.825-.785a6.626,6.626,0,0,1,3.516-1.974,4.394,4.394,0,0,1,5.688,4.195,31.129,31.129,0,0,1,.063,3.4c.011,1.888.023,3.777,0,5.665-.021,1.5.249,1.978,1.993,2.231.389.056.493.151.474.529-.033.654-.009.655-.655.655-2.309,0-4.617-.005-6.926.007-.3,0-.4-.07-.392-.384.02-.721,0-.721.716-.8.09-.01.18-.029.27-.042a1.4,1.4,0,0,0,1.4-1.628q0-3.907,0-7.813a11.372,11.372,0,0,0-.049-1.325,2.855,2.855,0,0,0-3.858-2.668,4.683,4.683,0,0,0-2.864,2.146.784.784,0,0,0-.091.447q0,4.531,0,9.063a1.484,1.484,0,0,0,1.217,1.665,2.221,2.221,0,0,0,.642.151c.484,0,.491.207.515.607.006.153.008.233.006.329,0,.2-.131.259-.312.25-1.174-.012-2.348-.006-3.521-.006-1.213,0-2.426,0-3.639,0-.232,0-.344-.027-.342-.307.006-.777-.009-.778.752-.885,1.2-.168,1.553-.571,1.552-1.768,0-2.917.025-5.834-.028-8.75a2.913,2.913,0,0,0-1.834-2.922,3.664,3.664,0,0,0-2.909.3,5,5,0,0,0-2.037,1.882.617.617,0,0,0-.08.372q0,4.512,0,9.024a1.55,1.55,0,0,0,1.121,1.642,3.71,3.71,0,0,0,1.059.25c.131.011.271,0,.27.2,0,.26,0,.521,0,.781.01.2-.231.183-.362.183q-2.935.008-5.869,0c-.469,0-.905.009-1.4-.006-.265.013-.322-.077-.319-.327.007-.771,0-.767.762-.864a4.608,4.608,0,0,0,.727-.142,1.164,1.164,0,0,0,.865-1,5.3,5.3,0,0,0,.063-.815q.006-4.708,0-9.416a2.2,2.2,0,0,0-2.1-2.434c-.185-.029-.517-.026-.527-.136a5.042,5.042,0,0,1-.023-.9c.01-.133.181-.141.274-.147q2.143-.154,4.287-.3c.221-.015.444-.015.662-.045.345-.047.481.119.481.437C1602.067,2143.381,1602.066,2144.077,1602.066,2144.875Z" transform="translate(-65.46 -18.229)" fill="#fff"/>
    <path id="Path_1483" data-name="Path 1483" d="M1534.327,2120.815c.01-.394-.213-.493-.624-.521a1.1,1.1,0,0,0-1.292.743c-.122.34-.283.38-.619.178a8.757,8.757,0,0,0-6.658-1.224,6.523,6.523,0,0,0-5.307,5.871,6.018,6.018,0,0,0,1.53,4.64,8.29,8.29,0,0,0,2.55,1.769c1.581.734,3.226,1.311,4.856,1.921a4.858,4.858,0,0,1,3.236,5.269,3.463,3.463,0,0,1-2.522,3.094,6.034,6.034,0,0,1-5.943-1.287,10.1,10.1,0,0,1-2.735-4.561c-.1-.314-.2-.816-.352-.9a2.1,2.1,0,0,0-1-.091c-.238.02-.3.088-.293.342.053,1.273.077,2.548.114,3.823.035,1.2.082,2.391.1,3.587.005.273.067.335.358.374a1.2,1.2,0,0,0,1.491-.86c.1-.3.248-.349.568-.178a11.177,11.177,0,0,0,7.23,1.336,7.167,7.167,0,0,0,6.3-7.3,5.687,5.687,0,0,0-2.1-4.428,13.1,13.1,0,0,0-3.044-1.725c-1.4-.621-2.875-1.064-4.261-1.725a5.545,5.545,0,0,1-2.122-1.552c-1.588-2.076-1.14-5.566,2.316-6.109a4.842,4.842,0,0,1,4.85,2.043,12.238,12.238,0,0,1,1.719,3.772c.106.328.2.911.343.951a2.866,2.866,0,0,0,1.036.051c.231-.025.269-.069.267-.282-.012-1.2-.005-2.393-.005-3.59Z" transform="translate(-13.445 -3.27)" fill="#fff"/>
    <path id="Path_1484" data-name="Path 1484" d="M1820.548,2126.569c.272-.309.523-.642.822-.923a6.5,6.5,0,0,1,5.7-1.8,4.068,4.068,0,0,1,3.353,3.507,8.93,8.93,0,0,1,.163,1.707c0,2.721.018,5.444-.01,8.165-.015,1.418.328,1.867,1.942,2.133.41.067.505.182.488.561-.029.623-.008.624-.65.624-2.348,0-4.7-.007-7.043.008-.314,0-.39-.086-.382-.387.019-.729,0-.729.751-.795.129-.011.258-.032.387-.049a1.381,1.381,0,0,0,1.385-1.556q.007-3.653,0-7.306a11.074,11.074,0,0,0-.1-2.22,2.872,2.872,0,0,0-3.7-2.385,4.984,4.984,0,0,0-2.254,1.1,2.59,2.59,0,0,0-1.015,2.147c.061,2.8.022,5.6.022,8.4a1.489,1.489,0,0,0,1.174,1.661,3.6,3.6,0,0,0,1.066.224c.2.008.263.07.27.276.03.881.038.88-.854.88-2.269,0-4.539-.006-6.808.007-.291,0-.379-.068-.372-.365.016-.73,0-.73.734-.829.078-.01.154-.026.232-.036,1.065-.139,1.441-.569,1.441-1.655q0-7.169,0-14.339c0-1.51,0-3.021,0-4.532a2.848,2.848,0,0,0-.163-.955,1.854,1.854,0,0,0-1.727-1.349c-.337-.027-.673-.078-1.011-.1-.2-.015-.287-.078-.29-.305-.012-.812-.022-.8.783-.847,1.638-.094,3.275-.2,4.913-.3.525-.031.61.057.61.593v10.936Z" transform="translate(-212.181 0)" fill="#fff"/>
    <path id="Path_1485" data-name="Path 1485" d="M1768.877,2147.427c0,.362-.011.7,0,1.036.007.17-.089.221-.215.273a10.524,10.524,0,0,1-4.538.967,3.146,3.146,0,0,1-3.329-3.105c-.054-.584-.062-1.168-.062-1.754,0-3.255,0-6.511.008-9.766,0-.307-.077-.394-.385-.384-.755.024-1.512,0-2.269.013-.223,0-.29-.063-.28-.282.017-.351.016-.7,0-1.054-.01-.205.056-.264.261-.261.809.011,1.617-.006,2.426.011.259.005.326-.07.324-.326-.012-1.471,0-2.942-.012-4.414,0-.263.05-.36.337-.353.795.021,1.591.023,2.386,0,.295-.009.33.1.328.354-.012,1.458,0,2.917-.013,4.375,0,.287.06.371.36.367,1.33-.018,2.661,0,3.991-.014.272,0,.367.066.345.343a6.063,6.063,0,0,0,0,.937c.021.266-.079.322-.329.32-1.33-.012-2.661,0-3.99-.013-.3,0-.364.083-.363.371.011,2.89,0,5.781.013,8.672a12,12,0,0,0,.13,2.06,2.023,2.023,0,0,0,2.092,1.865,8.914,8.914,0,0,0,1.405-.034A9.69,9.69,0,0,0,1768.877,2147.427Z" transform="translate(-174.252 -8.827)" fill="#fff"/>
    <path id="Path_1486" data-name="Path 1486" d="M1714.07,2149.829c0,2,.023,4.009-.007,6.014-.024,1.592.374,1.966,1.979,2.29.355.072.469.153.451.518-.033.669-.009.67-.675.67-2.295,0-4.589-.006-6.884.008-.3,0-.369-.075-.362-.365.019-.743,0-.74.722-.82a5.424,5.424,0,0,0,.653-.115,1.215,1.215,0,0,0,1-1.149,6.158,6.158,0,0,0,.047-.66q0-4.589,0-9.177c0-1.737-.506-2.353-2.212-2.692-.725-.144-.714-.144-.717-.9,0-.24.065-.3.3-.312,1.508-.085,3.015-.19,4.521-.288.208-.013.416-.023.623-.039.468-.036.558.042.559.5q0,1.425,0,2.851Z" transform="translate(-140.732 -18.782)" fill="#fff"/>
    <path id="Path_1487" data-name="Path 1487" d="M1716.6,2116.559a2.116,2.116,0,0,1,2.1,2.188,2.241,2.241,0,0,1-2.211,2.288,2.243,2.243,0,0,1,.107-4.477Z" transform="translate(-145.03 -1.101)" fill="#fff"/>
    <path id="Path_1488" data-name="Path 1488" d="M2172,2120.613c0-.258-.215-.3-.46-.335a1.232,1.232,0,0,0-1.542.845c0,.012-.011.024-.016.036-.09.228-.208.221-.412.1a10.979,10.979,0,0,0-15.377,4.719,14.137,14.137,0,0,0-1,9.659c1.248,5.528,5.635,8.843,10.684,8.692a9.059,9.059,0,0,0,8.555-5.488c.153-.326.392-.745.267-1.014s-.488-.353-.821-.479c-.207-.082-.3-.064-.363.131a8.17,8.17,0,0,1-.786,1.562,6.9,6.9,0,0,1-8.833,2.8,8.109,8.109,0,0,1-4.183-4.73,15.968,15.968,0,0,1-.186-10.3,7.953,7.953,0,0,1,2.693-4.242c2.292-1.8,6.452-2.411,8.761,1.635a16.837,16.837,0,0,1,1.4,3.5c.1.319.156.839.308.927a2.223,2.223,0,0,0,1,.052c.242-.018.332-.065.329-.306q-.017-1.932-.015-3.862Z" transform="translate(-440.38 -3.273)" fill="#fff"/>
    <path id="Path_1489" data-name="Path 1489" d="M2367.6,2144.671c.336-.315.668-.616.99-.928a6.269,6.269,0,0,1,5.513-1.757,4.08,4.08,0,0,1,3.434,3.471,8.235,8.235,0,0,1,.173,1.7q-.008,4.161,0,8.321c0,.233.03.467.053.7a1.215,1.215,0,0,0,.782,1.034,3.115,3.115,0,0,0,1.239.323c.243,0,.3.1.3.329.009.827.018.827-.8.827-2.269,0-4.538-.006-6.807.008-.314,0-.427-.062-.416-.4.025-.724.006-.723.727-.782.156-.013.311-.037.466-.057a1.329,1.329,0,0,0,1.318-1.485q.008-4.375,0-8.75a3.785,3.785,0,0,0-.554-2.042,2.828,2.828,0,0,0-3.394-1.152,4.688,4.688,0,0,0-2.949,2.09.933.933,0,0,0-.149.51q.006,4.531,0,9.063a1.531,1.531,0,0,0,1.055,1.563,3.963,3.963,0,0,0,1.211.277c.2.011.262.08.271.281.039.874.046.874-.831.874-2.269,0-4.538,0-6.808.006-.281,0-.41-.035-.4-.369.027-.735.006-.735.73-.813.117-.013.232-.033.349-.05a1.344,1.344,0,0,0,1.316-1.5c.009-1.223,0-2.448,0-3.672q0-3.183,0-6.367a2.055,2.055,0,0,0-1.97-2.231c-.613-.078-.582-.08-.624-.708-.026-.4.11-.489.482-.51,1.6-.087,3.2-.2,4.794-.315.308-.021.421.135.42.417,0,.559,0,1.12,0,1.68A.57.57,0,0,0,2367.6,2144.671Z" transform="translate(-581.241 -18.182)" fill="#fff"/>
    <path id="Path_1490" data-name="Path 1490" d="M2006.324,2144.819c-2.908,0-5.817,0-8.725.007-.326,0-.456-.048-.441-.416.032-.765.008-.767.777-.87.284-.039.569-.068.852-.11a1.6,1.6,0,0,0,1.536-1.735c.011-.377,0-.756,0-1.133v-15.587a1.776,1.776,0,0,0-1.454-2.055,6.373,6.373,0,0,0-1.435-.361c-.221-.024-.269-.122-.273-.329-.017-.9-.024-.9.878-.9,2.9,0,5.791.005,8.686-.008.312,0,.394.085.386.39-.017.755,0,.752-.73.891-.4.075-.793.151-1.183.251a1.5,1.5,0,0,0-1.33,1.581c-.012.143-.012.286-.012.43q0,7.793,0,15.587c0,.48.035.962.08,1.44a1.465,1.465,0,0,0,1.36,1.463,17.319,17.319,0,0,0,3.82.1,8.467,8.467,0,0,0,2.035-.342,2.061,2.061,0,0,0,1.076-.731,20.741,20.741,0,0,0,2.494-4.261.434.434,0,0,1,.47-.325,1.946,1.946,0,0,1,.7.063c.164.042.1.5.083.763-.128,1.959-.271,3.917-.4,5.876-.018.283-.134.329-.386.328Q2010.765,2144.812,2006.324,2144.819Z" transform="translate(-335.524 -4.307)" fill="#fff"/>
    <path id="Path_1491" data-name="Path 1491" d="M2244.662,2149.8q0,3.2,0,6.4a1.456,1.456,0,0,0,1.141,1.636,3.513,3.513,0,0,0,1.02.245c.167.009.225.073.227.238,0,.181,0,.334,0,.468.01.39-.057.462-.434.458-1.9-.022-3.807-.01-5.71-.01-.5,0-.991-.006-1.486,0-.19,0-.272-.038-.281-.254-.038-.832-.046-.828.781-.933a5.791,5.791,0,0,0,.651-.124,1.221,1.221,0,0,0,.954-1.1,3.042,3.042,0,0,0,.019-.467q0-4.921,0-9.841a1.984,1.984,0,0,0-1.633-2.117,8.85,8.85,0,0,0-1.072-.207c-.169-.023-.2-.081-.208-.238-.041-.9-.046-.894.872-.948q2.3-.139,4.6-.285c.428-.028.559.085.56.515Q2244.663,2146.525,2244.662,2149.8Z" transform="translate(-498.22 -18.732)" fill="#fff"/>
    <path id="Path_1492" data-name="Path 1492" d="M2249.351,2118.615a2.224,2.224,0,0,1-2.154,2.335,2.244,2.244,0,0,1,.012-4.478A2.091,2.091,0,0,1,2249.351,2118.615Z" transform="translate(-502.596 -1.043)" fill="#fff"/>
    <g id="Group_180" data-name="Group 180" transform="translate(1688.579 2123.715)">
      <path id="Path_1493" data-name="Path 1493" d="M2092.428,2151.042c0-.793.005-1.587,0-2.379s.022-1.612-.033-2.419a4.271,4.271,0,0,0-3.534-4.179,11.271,11.271,0,0,0-2.293-.193,7.36,7.36,0,0,0-4.649,1.544,3.2,3.2,0,0,0-1.313,1.922,1.885,1.885,0,0,0,1.12,2.192,2.124,2.124,0,0,0,1.76-.284,1.452,1.452,0,0,0,.693-1.317,6.4,6.4,0,0,0-.156-1.078c-.236-1.087-.19-1.206.892-1.543,2.209-.688,3.918.266,4.314,2.532a15.5,15.5,0,0,1,.079,2.025.466.466,0,0,1-.329.524c-1.4.611-2.854,1.045-4.29,1.542a13.075,13.075,0,0,0-3.029,1.316,4.521,4.521,0,0,0-1.7,5.049,4.032,4.032,0,0,0,3.957,2.781,6.658,6.658,0,0,0,5.174-2.229c.07-.074.125-.2.232-.188.134.018.087.169.114.261a2.643,2.643,0,0,0,2.316,2.02,6.454,6.454,0,0,0,3.235-.523c.116-.042.14-.117.149-.234.073-.9.076-.9-.818-.908-.156,0-.313,0-.469-.017a1.4,1.4,0,0,1-1.367-1.329,4.523,4.523,0,0,1-.051-.582Zm-3.3,4.43a4.658,4.658,0,0,1-3.3,1.781,2.4,2.4,0,0,1-2.682-2.35,3.659,3.659,0,0,1,1.743-3.438,15.66,15.66,0,0,1,4.362-1.8c0,1.854,0,3.674,0,5.494A.449.449,0,0,1,2089.124,2155.471Z" transform="translate(-2079.762 -2141.872)" fill="#fff"/>
    </g>
    <g id="Group_181" data-name="Group 181" transform="translate(1757.609 2123.708)">
      <path id="Path_1494" data-name="Path 1494" d="M2305.392,2154.466c-.211-.128-.422-.255-.642-.388-.177.284-.344.562-.52.834a4.568,4.568,0,0,1-3.515,2.312,4.876,4.876,0,0,1-5.108-2.683,10.242,10.242,0,0,1-.909-4.232c-.013-.292.1-.336.355-.333,1.069.013,2.138.005,3.208.005,2.3,0,4.591-.006,6.886.008.3,0,.375-.074.364-.367a20,20,0,0,0-.094-2.222,6.374,6.374,0,0,0-1.871-3.932,6.681,6.681,0,0,0-5.534-1.555,6.862,6.862,0,0,0-5.5,3.88,10.16,10.16,0,0,0-.868,7.049c.97,4.75,4.7,6.772,8.927,6.1a7.2,7.2,0,0,0,5.022-3.577C2305.946,2154.8,2305.943,2154.8,2305.392,2154.466Zm-9.534-9.762a3.528,3.528,0,0,1,3.371-1.547,3.029,3.029,0,0,1,2.645,2.5,10.109,10.109,0,0,1,.35,2.619c.005.239-.05.307-.3.3-1.146-.014-2.292-.007-3.438-.007s-2.318,0-3.477,0c-.147,0-.332.054-.31-.211A6.836,6.836,0,0,1,2295.857,2144.7Z" transform="translate(-2291.379 -2141.851)" fill="#fff"/>
    </g>
    <g id="Group_182" data-name="Group 182" transform="translate(1787.256 2148.754)">
      <path id="Path_1495" data-name="Path 1495" d="M2387.283,2219.852a1.672,1.672,0,0,0-1.541-1.175c-.569-.046-.881-.043-1.454-.043-.03,0-.24,0-.263,0-.482,0-.964,0-1.445,0-.125,0-.317-.037-.316.17s.144.171.26.194c.592.116.641.173.641.763q0,2.165,0,4.33c0,.576-.043.627-.62.73-.12.022-.264,0-.258.2s.182.173.306.174q1.113.008,2.227,0c.121,0,.3.029.3-.171s-.173-.173-.293-.191c-.589-.088-.66-.168-.663-.781,0-.442,0-.833-.008-1.326,0-.329.076-.414.4-.4a3.039,3.039,0,0,0,1.97-.477A1.925,1.925,0,0,0,2387.283,2219.852Zm-1.174,1.064a1.539,1.539,0,0,1-1.853.972c-.091-.041-.084-.147-.084-.227,0-.4,0-.807,0-1.21s0-.781,0-1.171c0-.17.061-.252.266-.256.078,0,.156,0,.235,0A1.378,1.378,0,0,1,2386.11,2220.916Z" transform="translate(-2382.265 -2218.633)" fill="#fff"/>
    </g>
    <path id="Path_1496" data-name="Path 1496" d="M2331.461,2225.222c-.742,0-1.485,0-2.227-.005-.117,0-.318.028-.33-.153-.016-.245.147-.2.28-.219.525-.085.6-.172.6-.715q0-2.134,0-4.266c0-.563-.074-.668-.623-.807-.15-.039-.26-.019-.256-.257,0-.136.2-.125.306-.126.742-.01,1.485-.007,2.228,0,.108,0,.25-.023.249.158s-.089.185-.224.21c-.653.123-.682.165-.682.833q0,2.06,0,4.12c0,.714.115.782.812.854a1.774,1.774,0,0,0,2.073-1.234c.034-.091.085-.174.123-.263.061-.143.185-.092.284-.087.135.006.094.121.089.2-.036.52-.089,1.04-.115,1.561-.01.223-.136.209-.289.209C2333,2225.22,2332.228,2225.222,2331.461,2225.222Z" transform="translate(-559.054 -69.901)" fill="#fff"/>
    <path id="Path_1497" data-name="Path 1497" d="M2358.142,2225.222c-.743,0-1.486,0-2.228-.005-.116,0-.317.028-.329-.153-.016-.245.147-.2.28-.219.526-.085.6-.172.6-.715q0-2.134,0-4.266c0-.563-.074-.668-.623-.807-.15-.039-.259-.019-.255-.257,0-.136.2-.125.307-.126.742-.01,1.485-.007,2.227,0,.108,0,.25-.023.249.158s-.089.185-.223.21c-.653.123-.683.165-.683.833q0,2.06,0,4.12c0,.714.115.782.813.854a1.775,1.775,0,0,0,2.074-1.234c.033-.091.085-.174.123-.263.061-.143.185-.092.284-.087.135.006.094.121.089.2-.037.52-.09,1.04-.115,1.561-.01.223-.136.209-.29.209C2359.676,2225.22,2358.908,2225.222,2358.142,2225.222Z" transform="translate(-577.032 -69.901)" fill="#fff"/>
    <path id="Path_1498" data-name="Path 1498" d="M1730.182,2254.845c.014-.176-.118-.134-.211-.134-.7,0-1.408,0-2.112,0-.1,0-.244-.055-.248.146,0,.162.043.244.216.242a1.314,1.314,0,0,1,.527.126.347.347,0,0,1,.238.431c-.312,1.462-.77,2.884-1.19,4.4-.062-.161-.1-.243-.126-.328q-.758-2.271-1.516-4.542c-.061-.183-.051-.4-.369-.4s-.316.2-.38.388c-.527,1.571-1.056,3.141-1.6,4.753a2.166,2.166,0,0,1-.093-.22q-.568-2-1.132-4.006c-.133-.475-.091-.53.4-.6.052-.007.1-.008.156-.009.149,0,.284,0,.278-.223s-.156-.164-.271-.165q-1.174-.005-2.347,0c-.1,0-.244-.073-.257.131-.011.178.05.239.23.273a.888.888,0,0,1,.735.716c.09.365.2.725.306,1.087l1.405,4.9a.29.29,0,0,0,.239.167.312.312,0,0,0,.246-.15,1.06,1.06,0,0,0,.168-.358c.5-1.493,1.037-2.973,1.516-4.473.015-.048.057-.152.1-.267.495,1.612,1.015,3.157,1.53,4.7a1.4,1.4,0,0,0,.188.393.342.342,0,0,0,.249.151.316.316,0,0,0,.228-.167c.051-.133.111-.262.153-.4.548-1.773,1.1-3.545,1.633-5.323a1.2,1.2,0,0,1,.963-1C1730.222,2255.071,1730.174,2254.953,1730.182,2254.845Z" transform="translate(-148.876 -94.181)" fill="#fff"/>
    <path id="Path_1499" data-name="Path 1499" d="M1854.338,2261.505c-.3-.12-.6-.229-.894-.364-.148-.069-.223-.023-.272.1-.075.19-.17.2-.328.175-.206-.03-.181-.209-.185-.32q-.037-.916-.052-1.833c0-.111-.012-.273.158-.277s.265.038.312.209a3.017,3.017,0,0,0,.768,1.38,1.768,1.768,0,0,0,1.185.524,1.218,1.218,0,0,0,1.331-.737,1.4,1.4,0,0,0-.6-1.662,7.521,7.521,0,0,0-.892-.386c-.3-.125-.608-.23-.9-.37a1.838,1.838,0,0,1-1.143-2.151,2.052,2.052,0,0,1,1.955-1.559,2.719,2.719,0,0,1,1.46.35c.151.083.267.154.358-.066.083-.2.27-.135.41-.113s.076.171.078.263q.022.9.027,1.795c0,.115.061.273-.161.276-.157,0-.255-.015-.3-.2a3.7,3.7,0,0,0-.5-1.177,1.466,1.466,0,0,0-1.483-.66,1,1,0,0,0-.872.685,1.128,1.128,0,0,0,.265,1.192,2.94,2.94,0,0,0,1.113.623c.37.157.746.3,1.111.471a1.783,1.783,0,0,1,1.144,1.745,2.08,2.08,0,0,1-1.186,1.875,2.378,2.378,0,0,1-.492.211,2.188,2.188,0,0,1-.714.1A2.478,2.478,0,0,1,1854.338,2261.505Z" transform="translate(-238.125 -93.866)" fill="#fff"/>
    <path id="Path_1500" data-name="Path 1500" d="M1793.5,2261.738c-.861,0-1.722,0-2.583,0-.126,0-.3.069-.316-.171s.132-.2.27-.228c.7-.124.725-.148.725-.847q0-2.246,0-4.493c0-.64-.065-.726-.694-.868-.152-.034-.3-.028-.3-.236.018-.182.21-.169.323-.169,1.6-.007,3.209,0,4.813-.009.22,0,.33.023.312.287-.026.389,0,.781-.01,1.172,0,.1.067.249-.137.253-.138,0-.26,0-.306-.162a1.089,1.089,0,0,0-.077-.178,1.518,1.518,0,0,0-1.568-.969c-.406,0-.7.014-1.056,0-.174-.006-.223.056-.222.223q.01,1.173,0,2.344c0,.156.055.208.2.2.169-.009.339,0,.509,0,.741,0,.989-.18,1.151-.889.045-.2.057-.261.247-.248.226.016.2.182.2.291.007.729.005,1.458,0,2.188,0,.119.052.268-.167.276-.184.007-.231-.069-.271-.239a1.277,1.277,0,0,0-1.765-.952c-.137.042-.1.129-.1.21,0,.716-.006,1.432,0,2.148a.534.534,0,0,0,.5.6,8.657,8.657,0,0,0,1.757-.009.887.887,0,0,0,.686-.458,5.816,5.816,0,0,0,.5-.967c.063-.171.082-.214.243-.2.245.028.186.207.182.3-.019.481-.09.96-.085,1.44,0,.333-.14.369-.416.364C1795.2,2261.729,1794.351,2261.738,1793.5,2261.738Z" transform="translate(-196.347 -94.19)" fill="#fff"/>
    <path id="Path_1501" data-name="Path 1501" d="M1504.678,2254.718c.926,0,1.852.006,2.777,0,.216,0,.292.05.283.277-.018.468,0,.937-.007,1.406,0,.1.038.223-.125.233-.119.007-.232.013-.28-.142a3.308,3.308,0,0,0-.167-.393,1.467,1.467,0,0,0-1.628-.984c-.247.029-.325.071-.322.327.014,1.223.006,2.448.006,3.671q0,.7,0,1.406c0,.543.07.639.58.769.24.049.53-.09.518.275-.007.219-.349.165-.525.169-.834.023-1.669.011-2.5.009-.117,0-.267.026-.279-.164-.014-.217.1-.223.259-.231.13-.006.329-.016.458-.036.315-.05.411-.238.41-.571q0-2.676,0-5.35c0-.2-.057-.247-.26-.272a1.481,1.481,0,0,0-1.691,1,2.523,2.523,0,0,0-.156.356c-.045.179-.169.174-.3.162-.168-.016-.11-.15-.111-.24-.005-.469.011-.938-.009-1.406-.01-.239.085-.27.291-.268C1502.827,2254.724,1503.753,2254.718,1504.678,2254.718Z" transform="translate(-1.624 -94.19)" fill="#fff"/>
    <path id="Path_1502" data-name="Path 1502" d="M1763.274,2258.2c.545-.862,1.078-1.689,1.524-2.569.116-.229.025-.379-.2-.443a2.534,2.534,0,0,0-.5-.078c-.144-.01-.161-.088-.164-.206s.027-.185.17-.184c.7.006,1.408,0,2.112,0,.112,0,.174.029.16.153-.011.1.032.209-.123.242a1.828,1.828,0,0,0-1.138,1c-.472.777-.928,1.563-1.39,2.345a1.728,1.728,0,0,0-.218.9q0,.41,0,.82c0,.949,0,.954.905,1.164.147.034.232.06.221.237s-.13.162-.245.162h-2.816c-.123,0-.226.006-.235-.172s.064-.222.225-.225a2.6,2.6,0,0,0,.425-.057.48.48,0,0,0,.448-.5c0-.56,0-1.12,0-1.679a.847.847,0,0,0-.129-.4c-.5-.939-1-1.88-1.5-2.815a1.27,1.27,0,0,0-.962-.774c-.168-.02-.166-.126-.169-.249,0-.169.114-.142.214-.142h2.582c.123,0,.222-.011.222.172s-.085.2-.237.21c-.8.066-.8.073-.417.8C1762.436,2256.656,1762.845,2257.408,1763.274,2258.2Z" transform="translate(-175.504 -94.195)" fill="#fff"/>
    <path id="Path_1503" data-name="Path 1503" d="M1619.024,2261.745c-.808,0-1.616,0-2.424,0-.121,0-.313.012-.307-.171.008-.223.119-.2.265-.225.611-.091.681-.177.681-.809q0-2.244,0-4.489c0-.663-.068-.764-.7-.916-.158-.038-.26-.054-.248-.254.01-.166.175-.148.278-.149q1.212-.011,2.424,0c.1,0,.271-.029.282.144.01.2-.083.223-.248.25-.661.111-.709.175-.709.826q0,2.283,0,4.567c0,.651.113.767.761.809.013,0,.026,0,.039,0a1.975,1.975,0,0,0,2.285-1.325c.03-.084.048-.158.074-.244.049-.165.213-.127.332-.122.151.006.123.138.117.224-.033.531-.085,1.062-.111,1.594-.011.234-.1.3-.332.3C1620.666,2261.735,1619.844,2261.745,1619.024,2261.745Z" transform="translate(-78.897 -94.196)" fill="#fff"/>
    <path id="Path_1504" data-name="Path 1504" d="M1665.063,2261.745c-.8,0-1.591,0-2.386-.005-.125,0-.34.03-.353-.164-.016-.262.158-.211.3-.235.563-.09.643-.184.643-.766q0-2.284,0-4.569c0-.6-.079-.715-.667-.865-.161-.041-.278-.02-.274-.275,0-.145.216-.134.328-.136.8-.01,1.591-.007,2.386,0,.116,0,.268-.025.267.169s-.1.2-.239.225c-.7.131-.731.176-.732.892q0,2.206,0,4.412c0,.764.123.838.87.914a1.9,1.9,0,0,0,2.221-1.322c.036-.1.091-.187.132-.282.065-.153.2-.1.3-.094.144.007.1.13.095.209-.039.557-.1,1.114-.122,1.672-.011.239-.146.223-.31.223C1666.706,2261.743,1665.885,2261.745,1665.063,2261.745Z" transform="translate(-109.913 -94.196)" fill="#fff"/>
    <path id="Path_1505" data-name="Path 1505" d="M1564.951,2254.727h1.329c.119,0,.234-.018.228.17,0,.147-.049.212-.2.216-.116,0-.23.037-.347.049-.384.041-.53.269-.529.636q.005,2.419,0,4.838a.585.585,0,0,0,.567.657c.116.016.228.055.344.063.142.01.163.085.163.206s-.051.185-.183.185q-1.407,0-2.813,0c-.127,0-.185-.04-.192-.177s.049-.21.2-.215c.117,0,.232-.028.349-.038.368-.031.51-.23.507-.6-.01-1.6,0-3.2,0-4.8,0-.547-.039-.6-.588-.74a1.382,1.382,0,0,0-.265-.06c-.153-.008-.19-.083-.2-.225-.008-.189.111-.169.228-.169Z" transform="translate(-43.201 -94.198)" fill="#fff"/>
    <g id="Group_183" data-name="Group 183" transform="translate(1509.889 2160.509)">
      <path id="Path_1506" data-name="Path 1506" d="M1538.595,2261.309a1.333,1.333,0,0,1-.937-.508c-.644-.83-1.269-1.674-1.922-2.541.2-.075.331-.121.463-.177a1.737,1.737,0,0,0,1.215-1.946,1.568,1.568,0,0,0-1.554-1.382,34.446,34.446,0,0,0-3.708-.068c-.134,0-.183.044-.182.178s.065.188.2.22c.736.168.736.174.736.925q0,2.226,0,4.451c0,.666-.058.736-.687.849-.123.022-.26-.009-.256.2,0,.23.15.2.291.2.782,0,1.564,0,2.346,0,.133,0,.33.09.343-.181s-.19-.189-.322-.212c-.587-.1-.658-.183-.659-.795,0-.573,0-1.145,0-1.717,0-.092-.019-.272.124-.272.279,0,.53-.093.768.231.654.892,1.3,1.789,1.9,2.718.088.136.161.243.357.237.482-.016.964,0,1.447-.006.111,0,.238.032.248-.156C1538.819,2261.381,1538.758,2261.326,1538.595,2261.309Zm-4-3.223c-.627.02-.627.02-.627-.588,0-.651.025-1.2-.01-1.854-.019-.368.047-.485.4-.515.064-.005.173-.012.238-.012a1.3,1.3,0,0,1,1.59,1.332A1.525,1.525,0,0,1,1534.594,2258.086Z" transform="translate(-1531.967 -2254.668)" fill="#fff"/>
    </g>
    <g id="Group_184" data-name="Group 184" transform="translate(1604.154 2160.509)">
      <path id="Path_1507" data-name="Path 1507" d="M1827.574,2261.309a1.334,1.334,0,0,1-.937-.508c-.643-.83-1.269-1.674-1.922-2.541.2-.075.331-.121.463-.177a1.737,1.737,0,0,0,1.215-1.946,1.568,1.568,0,0,0-1.554-1.382,34.438,34.438,0,0,0-3.707-.068c-.134,0-.183.044-.182.178s.065.188.2.22c.736.168.736.174.737.925q0,2.226,0,4.451c0,.666-.059.736-.688.849-.122.022-.26-.009-.256.2,0,.23.15.2.291.2.782,0,1.564,0,2.346,0,.133,0,.33.09.342-.181s-.19-.189-.322-.212c-.587-.1-.658-.183-.659-.795,0-.573,0-1.145,0-1.717,0-.092-.018-.272.124-.272.279,0,.53-.093.768.231.654.892,1.3,1.789,1.9,2.718.088.136.161.243.357.237.482-.016.964,0,1.446-.006.111,0,.238.032.249-.156C1827.8,2261.381,1827.737,2261.326,1827.574,2261.309Zm-4-3.223c-.627.02-.627.02-.627-.588,0-.651.025-1.2-.009-1.854-.019-.368.047-.485.4-.515.064-.005.173-.012.238-.012a1.3,1.3,0,0,1,1.59,1.332A1.525,1.525,0,0,1,1823.573,2258.086Z" transform="translate(-1820.946 -2254.668)" fill="#fff"/>
    </g>
    <g id="Group_185" data-name="Group 185" transform="translate(1526.691 2160.431)">
      <path id="Path_1508" data-name="Path 1508" d="M1590.553,2261.15a1.169,1.169,0,0,1-.938-.875c-.678-1.794-1.376-3.581-2.08-5.366-.074-.186-.154-.479-.4-.479s-.309.309-.382.494q-1.043,2.619-2.055,5.25a1.308,1.308,0,0,1-1.052.975c-.163.022-.174.109-.173.239,0,.155.095.16.206.16.756,0,1.512,0,2.267,0,.127,0,.188-.035.192-.174s-.026-.21-.186-.222a2.514,2.514,0,0,1-.493-.109c-.265-.076-.4-.206-.3-.522s.171-.571.253-.858c.129-.448.187-.561.745-.545.239.012.468.005.7.008a4.179,4.179,0,0,1,1.2.085c.254.195.272.624.418,1.039.252.878.28.82-.485.9-.161.028-.224.071-.214.239.011.189.139.154.25.155.4,0,.808,0,1.212,0h1.251c.116,0,.239.021.241-.165C1590.735,2261.246,1590.71,2261.174,1590.553,2261.15Zm-4.741-2.5,1.022-2.657,1.038,2.657Z" transform="translate(-1583.477 -2254.43)" fill="#fff"/>
    </g>
    <g id="Group_186" data-name="Group 186" transform="translate(1561.049 2160.431)">
      <path id="Path_1509" data-name="Path 1509" d="M1695.88,2261.15a1.169,1.169,0,0,1-.938-.875c-.678-1.794-1.376-3.581-2.08-5.366-.074-.186-.154-.479-.4-.479s-.309.309-.383.494q-1.043,2.619-2.055,5.25a1.308,1.308,0,0,1-1.052.975c-.164.022-.174.109-.174.239,0,.155.095.16.207.16.756,0,1.511,0,2.267,0,.127,0,.189-.035.192-.174s-.026-.21-.186-.222a2.519,2.519,0,0,1-.493-.109c-.264-.076-.4-.206-.3-.522s.171-.571.253-.858c.128-.448.187-.561.745-.545.239.012.468.005.7.008a4.179,4.179,0,0,1,1.2.085c.254.195.272.624.418,1.039.252.878.279.82-.485.9-.161.028-.224.071-.214.239.011.189.139.154.25.155.4,0,.808,0,1.212,0h1.251c.116,0,.24.021.241-.165C1696.062,2261.246,1696.037,2261.174,1695.88,2261.15Zm-4.741-2.5,1.022-2.657,1.038,2.657Z" transform="translate(-1688.804 -2254.43)" fill="#fff"/>
    </g>
  </g>
</svg>
