<svg xmlns="http://www.w3.org/2000/svg" viewBox="0 0 400 120" width="400" height="120">
  <!-- Monochrome version for dark backgrounds / print -->

  <!-- Wordmark: "LexiFlow" (dark background variant) -->
  <g transform="translate(130, 0)">
    <!-- "Lexi" -->
    <text x="0" y="72" font-family="'Inter', 'Segoe UI', system-ui, sans-serif" font-size="38" font-weight="700" fill="#ffffff" letter-spacing="-1" dominant-baseline="central">Lexi</text>

    <!-- "Flow" -->
    <text x="95" y="72" font-family="'Inter', 'Segoe UI', system-ui, sans-serif" font-size="38" font-weight="700" fill="#60a5fa" letter-spacing="-1" dominant-baseline="central">Flow</text>

    <!-- Tagline -->
    <text x="2" y="100" font-family="'Inter', 'Segoe UI', system-ui, sans-serif" font-size="11" font-weight="400" fill="#94a3b8" letter-spacing="2.5" dominant-baseline="central">AI-POWERED LEGAL INTAKE</text>
  </g>

  <!-- Icon -->
  <g transform="translate(10, 10)">
    <path d="M30 50 Q30 15 60 15 Q90 15 90 50 Q90 85 60 85 Q30 85 30 50Z" fill="#ffffff" opacity="0.08"/>
    <line x1="20" y1="50" x2="100" y2="50" stroke="#60a5fa" stroke-width="3" stroke-linecap="round"/>
    <polygon points="55,70 65,70 60,50" fill="#60a5fa" opacity="0.9"/>
    <path d="M20 50 Q15 62 10 65 Q20 68 30 65 Q25 62 20 50Z" fill="#60a5fa" opacity="0.85"/>
    <path d="M100 50 Q105 42 110 40 Q100 37 90 40 Q95 42 100 50Z" fill="#60a5fa" opacity="0.85"/>
    <circle cx="95" cy="43" r="2" fill="#93c5fd" opacity="0.9"/>
    <circle cx="102" cy="39" r="2.5" fill="#93c5fd" opacity="0.7"/>
    <circle cx="108" cy="42" r="1.5" fill="#93c5fd" opacity="0.5"/>
  </g>
</svg>