<svg xmlns="http://www.w3.org/2000/svg" viewBox="0 0 120 120" width="120" height="120">
  <defs>
    <linearGradient id="fvGrad" x1="0%" y1="0%" x2="100%" y2="100%">
      <stop offset="0%" style="stop-color:#f59e0b;stop-opacity:1" />
      <stop offset="100%" style="stop-color:#d97706;stop-opacity:1" />
    </linearGradient>
  </defs>
  <!-- Hexagonal badge (Filevine theme) -->
  <polygon points="60 12,100 36,100 84,60 108,20 84,20 36"
           fill="#fffbeb" stroke="#fde68a" stroke-width="2"/>
  <!-- Stylized "V" vine shape -->
  <path d="M42 42 C42 42 48 36 55 42 C62 48 58 56 58 56"
        fill="none" stroke="url(#fvGrad)" stroke-width="6" stroke-linecap="round"/>
  <path d="M58 56 C58 56 62 64 70 70 C78 76 82 72 82 72"
        fill="none" stroke="url(#fvGrad)" stroke-width="6" stroke-linecap="round"/>
  <!-- Growth leaves -->
  <path d="M38 48 C32 42 28 46 32 52 C36 58 42 54 38 48Z"
        fill="url(#fvGrad)" opacity="0.8"/>
  <path d="M76 64 C82 58 86 62 82 68 C78 74 72 70 76 64Z"
        fill="url(#fvGrad)" opacity="0.6"/>
  <!-- Small file/document accent -->
  <rect x="68" y="42" width="18" height="22" rx="3" fill="none" stroke="#fbbf24" stroke-width="2.5"/>
  <line x1="72" y1="48" x2="82" y2="48" stroke="#fbbf24" stroke-width="2" stroke-linecap="round"/>
  <line x1="72" y1="54" x2="80" y2="54" stroke="#fbbf24" stroke-width="2" stroke-linecap="round"/>
</svg>